<svg width="144" height="144" viewBox="0 0 144 144" fill="none" xmlns="http://www.w3.org/2000/svg">
<g clip-path="url(#clip0_127_1653)">
<rect width="144" height="144" fill="#EBF5FA"/>
<circle cx="83.9594" cy="102.959" r="27.1377" stroke="#4C75F2" stroke-opacity="0.1"/>
<circle cx="83.9595" cy="102.959" r="33.4595" stroke="#4C75F2" stroke-opacity="0.1"/>
<circle cx="84.0405" cy="102.878" r="20.0864" stroke="#4C75F2" stroke-opacity="0.1"/>
<path fill-rule="evenodd" clip-rule="evenodd" d="M119.152 -6.56112C127.561 -7.46514 137.313 -7.52162 142.969 -1.21147C148.517 4.97759 144.453 14.4174 145.372 22.6908C146.526 33.0641 154.745 43.9284 148.952 52.5971C142.927 61.6129 129.963 62.2921 119.152 61.9259C108.749 61.5735 98.0526 58.5912 91.298 50.6439C84.9138 43.1322 84.0278 32.4012 85.8053 22.6908C87.2986 14.5331 93.7208 8.87245 99.9435 3.41389C105.586 -1.53595 111.7 -5.76003 119.152 -6.56112Z" fill="#A8E7A8"/>
<path fill-rule="evenodd" clip-rule="evenodd" d="M8.05656 -15.5587C20.1749 -17.77 32.8194 -11.4128 40.9939 -2.26375C48.794 6.46638 51.5878 19.0103 49.1392 30.4221C47.0411 40.2006 36.5254 44.5347 29.4298 51.6322C22.2799 58.7839 18.0366 69.6699 8.05656 71.5154C-3.11852 73.5819 -14.5937 68.823 -23.1065 61.3472C-32.1537 53.4022 -40.6111 42.2657 -38.7373 30.4221C-36.9582 19.1766 -22.8 15.8993 -14.649 7.88993C-6.57988 -0.0389232 -3.11171 -13.5207 8.05656 -15.5587Z" fill="#B0DDFF"/>
<path fill-rule="evenodd" clip-rule="evenodd" d="M2.32029 72.0152C21.1748 71.4995 37.8754 84.1261 43.7451 102.018C49.6568 120.037 43.7551 140.12 28.2636 151.094C13.2577 161.724 -7.02854 159.529 -21.5894 148.3C-34.8983 138.036 -37.6824 120.129 -32.6607 104.107C-27.4329 87.4278 -15.1826 72.494 2.32029 72.0152Z" fill="#E9CDFF"/>
<path fill-rule="evenodd" clip-rule="evenodd" d="M56.2498 100.909C65.0637 101.989 69.4247 110.129 72.7947 118.27C77.747 130.234 87.6355 144.489 77.8143 153.005C66.7212 162.624 50.0934 156.84 38.0898 148.363C25.6495 139.576 13.9421 125.874 19.3585 111.72C24.3851 98.5853 42.1796 99.1843 56.2498 100.909Z" fill="#FFC8E5"/>
<path d="M61.744 65.24C60.88 63.576 59.68 62.328 58.144 61.496C56.608 60.632 54.832 60.2 52.816 60.2C50.608 60.2 48.64 60.696 46.912 61.688C45.184 62.68 43.824 64.088 42.832 65.912C41.872 67.736 41.392 69.848 41.392 72.248C41.392 74.648 41.872 76.776 42.832 78.632C43.824 80.456 45.184 81.864 46.912 82.856C48.64 83.848 50.608 84.344 52.816 84.344C55.792 84.344 58.208 83.512 60.064 81.848C61.92 80.184 63.056 77.928 63.472 75.08H50.944V70.712H69.328V74.984C68.976 77.576 68.048 79.96 66.544 82.136C65.072 84.312 63.136 86.056 60.736 87.368C58.368 88.648 55.728 89.288 52.816 89.288C49.68 89.288 46.816 88.568 44.224 87.128C41.632 85.656 39.568 83.624 38.032 81.032C36.528 78.44 35.776 75.512 35.776 72.248C35.776 68.984 36.528 66.056 38.032 63.464C39.568 60.872 41.632 58.856 44.224 57.416C46.848 55.944 49.712 55.208 52.816 55.208C56.368 55.208 59.52 56.088 62.272 57.848C65.056 59.576 67.072 62.04 68.32 65.24H61.744ZM89.941 89.336C86.837 89.336 83.973 88.616 81.349 87.176C78.757 85.704 76.693 83.672 75.157 81.08C73.653 78.456 72.901 75.512 72.901 72.248C72.901 68.984 73.653 66.056 75.157 63.464C76.693 60.872 78.757 58.856 81.349 57.416C83.973 55.944 86.837 55.208 89.941 55.208C93.077 55.208 95.941 55.944 98.533 57.416C101.157 58.856 103.221 60.872 104.725 63.464C106.229 66.056 106.981 68.984 106.981 72.248C106.981 75.512 106.229 78.456 104.725 81.08C103.221 83.672 101.157 85.704 98.533 87.176C95.941 88.616 93.077 89.336 89.941 89.336ZM89.941 84.584C92.149 84.584 94.117 84.088 95.845 83.096C97.573 82.072 98.917 80.632 99.877 78.776C100.869 76.888 101.365 74.712 101.365 72.248C101.365 69.784 100.869 67.624 99.877 65.768C98.917 63.912 97.573 62.488 95.845 61.496C94.117 60.504 92.149 60.008 89.941 60.008C87.733 60.008 85.765 60.504 84.037 61.496C82.309 62.488 80.949 63.912 79.957 65.768C78.997 67.624 78.517 69.784 78.517 72.248C78.517 74.712 78.997 76.888 79.957 78.776C80.949 80.632 82.309 82.072 84.037 83.096C85.765 84.088 87.733 84.584 89.941 84.584Z" fill="black"/>
</g>
<defs>
<clipPath id="clip0_127_1653">
<rect width="144" height="144" fill="white"/>
</clipPath>
</defs>
</svg>
