<svg width="1920" height="1080" viewBox="0 0 1920 1080" fill="none" xmlns="http://www.w3.org/2000/svg">
<g clip-path="url(#clip0_126_1405)">
<rect width="1920" height="1080" fill="#EBF5FA"/>
<circle cx="1330.46" cy="1057.46" r="207.973" stroke="#4C75F2" stroke-opacity="0.1" stroke-width="8"/>
<circle cx="1330.46" cy="1057.46" r="256.459" stroke="#4C75F2" stroke-opacity="0.1" stroke-width="8"/>
<circle cx="1331.08" cy="1056.84" r="153.892" stroke="#4C75F2" stroke-opacity="0.1" stroke-width="8"/>
<circle cx="377.459" cy="864.459" r="207.973" stroke="#4C75F2" stroke-opacity="0.1" stroke-width="8"/>
<circle cx="377.459" cy="864.459" r="256.459" stroke="#4C75F2" stroke-opacity="0.1" stroke-width="8"/>
<circle cx="378.081" cy="863.838" r="153.892" stroke="#4C75F2" stroke-opacity="0.1" stroke-width="8"/>
<path fill-rule="evenodd" clip-rule="evenodd" d="M1734.46 -63.9959C1859.24 -64.6108 1977.76 4.01418 2045.44 108.766C2106.46 203.218 2078.16 319.64 2053.14 429.25C2028.11 538.886 2009.51 668.157 1907.09 714.771C1805.88 760.839 1699.85 684.51 1600.04 635.472C1501.85 587.232 1388.68 547.074 1354.42 443.241C1317.14 330.218 1355.92 207.077 1427.3 111.812C1501.69 12.512 1610.32 -63.3842 1734.46 -63.9959Z" fill="#86E9D9"/>
<path d="M-305 309C818.826 328.565 575.696 730.595 2034 534.01" stroke="white" stroke-opacity="0.6" stroke-width="24" stroke-linecap="round"/>
<path fill-rule="evenodd" clip-rule="evenodd" d="M18.3738 -7.77375C106.287 -23.9395 198.017 22.5339 257.319 89.4169C313.906 153.237 334.173 244.938 316.41 328.362C301.189 399.847 224.902 431.531 173.427 483.415C121.558 535.697 90.7741 615.278 18.3738 628.769C-62.6963 643.876 -145.943 609.087 -207.7 554.436C-273.333 496.355 -334.688 414.943 -321.094 328.362C-308.187 246.154 -205.476 222.195 -146.344 163.644C-87.8069 105.681 -62.6469 7.12463 18.3738 -7.77375Z" fill="#B0DDFF"/>
<path fill-rule="evenodd" clip-rule="evenodd" d="M72.8708 619.127C229.42 614.837 368.086 719.871 416.822 868.703C465.907 1018.6 416.905 1185.65 288.278 1276.94C163.684 1365.37 -4.75258 1347.12 -125.652 1253.7C-236.155 1168.32 -259.272 1019.36 -217.577 886.087C-174.17 747.337 -72.4563 623.109 72.8708 619.127Z" fill="#E9CDFF"/>
<path fill-rule="evenodd" clip-rule="evenodd" d="M1340.09 -69.2725C1411.77 -76.9505 1494.89 -77.4302 1543.1 -23.8371C1590.38 28.7276 1555.74 108.902 1563.58 179.168C1573.41 267.271 1643.47 359.543 1594.09 433.168C1542.74 509.74 1432.24 515.509 1340.09 512.398C1251.43 509.405 1160.25 484.076 1102.68 416.578C1048.27 352.781 1040.71 261.641 1055.86 179.168C1068.59 109.884 1123.33 61.8073 1176.37 15.4468C1224.46 -26.5929 1276.58 -62.4687 1340.09 -69.2725Z" fill="#A8E7A8"/>
<path fill-rule="evenodd" clip-rule="evenodd" d="M658.222 769.777C732.932 779.02 769.898 848.653 798.463 918.302C840.441 1020.65 924.261 1142.6 841.011 1215.46C746.982 1297.74 606.037 1248.27 504.29 1175.74C398.841 1100.57 299.603 983.349 345.515 862.265C388.123 749.897 538.957 755.022 658.222 769.777Z" fill="#FFC8E5"/>
<path d="M201.72 254.24C200.36 252 198.48 250.28 196.08 249.08C193.76 247.88 191 247.28 187.8 247.28C181.88 247.28 177.2 249.2 173.76 253.04C170.4 256.88 168.72 262.04 168.72 268.52C168.72 275.8 170.52 281.36 174.12 285.2C177.8 288.96 183.12 290.84 190.08 290.84C198.32 290.84 204.2 287.12 207.72 279.68H184.08V262.76H228V285.56C226.16 290.04 223.44 294.24 219.84 298.16C216.32 302.08 211.84 305.32 206.4 307.88C200.96 310.36 194.76 311.6 187.8 311.6C179.32 311.6 171.8 309.8 165.24 306.2C158.76 302.52 153.72 297.44 150.12 290.96C146.6 284.4 144.84 276.92 144.84 268.52C144.84 260.2 146.6 252.8 150.12 246.32C153.72 239.76 158.76 234.68 165.24 231.08C171.72 227.4 179.2 225.56 187.68 225.56C198.32 225.56 207.12 228.12 214.08 233.24C221.04 238.36 225.36 245.36 227.04 254.24H201.72ZM272.26 311.84C265.54 311.84 259.5 310.44 254.14 307.64C248.86 304.84 244.7 300.84 241.66 295.64C238.62 290.44 237.1 284.32 237.1 277.28C237.1 270.32 238.62 264.24 241.66 259.04C244.78 253.84 248.98 249.84 254.26 247.04C259.62 244.24 265.66 242.84 272.38 242.84C279.1 242.84 285.1 244.24 290.38 247.04C295.74 249.84 299.94 253.84 302.98 259.04C306.1 264.24 307.66 270.32 307.66 277.28C307.66 284.24 306.1 290.36 302.98 295.64C299.94 300.84 295.74 304.84 290.38 307.64C285.02 310.44 278.98 311.84 272.26 311.84ZM272.26 291.44C275.54 291.44 278.26 290.24 280.42 287.84C282.66 285.36 283.78 281.84 283.78 277.28C283.78 272.72 282.66 269.24 280.42 266.84C278.26 264.44 275.58 263.24 272.38 263.24C269.18 263.24 266.5 264.44 264.34 266.84C262.18 269.24 261.1 272.72 261.1 277.28C261.1 281.92 262.14 285.44 264.22 287.84C266.3 290.24 268.98 291.44 272.26 291.44ZM342.118 268.52C342.118 260.2 343.838 252.8 347.278 246.32C350.798 239.76 355.758 234.68 362.158 231.08C368.558 227.4 375.918 225.56 384.238 225.56C394.798 225.56 403.678 228.4 410.878 234.08C418.078 239.68 422.718 247.32 424.798 257H399.478C397.958 253.8 395.838 251.36 393.118 249.68C390.478 248 387.398 247.16 383.878 247.16C378.438 247.16 374.078 249.12 370.798 253.04C367.598 256.88 365.998 262.04 365.998 268.52C365.998 275.08 367.598 280.32 370.798 284.24C374.078 288.08 378.438 290 383.878 290C387.398 290 390.478 289.16 393.118 287.48C395.838 285.8 397.958 283.36 399.478 280.16H424.798C422.718 289.84 418.078 297.52 410.878 303.2C403.678 308.8 394.798 311.6 384.238 311.6C375.918 311.6 368.558 309.8 362.158 306.2C355.758 302.52 350.798 297.44 347.278 290.96C343.838 284.4 342.118 276.92 342.118 268.52ZM469.656 311.84C462.936 311.84 456.896 310.44 451.536 307.64C446.256 304.84 442.096 300.84 439.056 295.64C436.016 290.44 434.496 284.32 434.496 277.28C434.496 270.32 436.016 264.24 439.056 259.04C442.176 253.84 446.376 249.84 451.656 247.04C457.016 244.24 463.056 242.84 469.776 242.84C476.496 242.84 482.496 244.24 487.776 247.04C493.136 249.84 497.336 253.84 500.376 259.04C503.496 264.24 505.056 270.32 505.056 277.28C505.056 284.24 503.496 290.36 500.376 295.64C497.336 300.84 493.136 304.84 487.776 307.64C482.416 310.44 476.376 311.84 469.656 311.84ZM469.656 291.44C472.936 291.44 475.656 290.24 477.816 287.84C480.056 285.36 481.176 281.84 481.176 277.28C481.176 272.72 480.056 269.24 477.816 266.84C475.656 264.44 472.976 263.24 469.776 263.24C466.576 263.24 463.896 264.44 461.736 266.84C459.576 269.24 458.496 272.72 458.496 277.28C458.496 281.92 459.536 285.44 461.616 287.84C463.696 290.24 466.376 291.44 469.656 291.44ZM561.065 243.08C568.825 243.08 574.985 245.68 579.545 250.88C584.105 256 586.385 262.96 586.385 271.76V311H562.865V274.88C562.865 271.04 561.865 268.04 559.865 265.88C557.865 263.64 555.185 262.52 551.825 262.52C548.305 262.52 545.545 263.64 543.545 265.88C541.545 268.04 540.545 271.04 540.545 274.88V311H517.025V243.68H540.545V253.28C542.625 250.24 545.425 247.8 548.945 245.96C552.465 244.04 556.505 243.08 561.065 243.08ZM638.05 263.24H627.49V311H603.85V263.24H596.53V243.68H603.85V243.08C603.85 234.44 606.37 227.84 611.41 223.28C616.53 218.64 623.85 216.32 633.37 216.32C635.29 216.32 636.77 216.36 637.81 216.44V236.48C637.17 236.4 636.29 236.36 635.17 236.36C632.61 236.36 630.73 236.96 629.53 238.16C628.33 239.28 627.65 241.12 627.49 243.68H638.05V263.24ZM713.176 276.56C713.176 278.4 713.056 280.24 712.816 282.08H668.296C668.536 285.76 669.536 288.52 671.296 290.36C673.136 292.12 675.456 293 678.256 293C682.176 293 684.976 291.24 686.656 287.72H711.736C710.696 292.36 708.656 296.52 705.616 300.2C702.656 303.8 698.896 306.64 694.336 308.72C689.776 310.8 684.736 311.84 679.216 311.84C672.576 311.84 666.656 310.44 661.456 307.64C656.336 304.84 652.296 300.84 649.336 295.64C646.456 290.44 645.016 284.32 645.016 277.28C645.016 270.24 646.456 264.16 649.336 259.04C652.216 253.84 656.216 249.84 661.336 247.04C666.536 244.24 672.496 242.84 679.216 242.84C685.856 242.84 691.736 244.2 696.856 246.92C701.976 249.64 705.976 253.56 708.856 258.68C711.736 263.72 713.176 269.68 713.176 276.56ZM689.176 270.68C689.176 267.8 688.216 265.56 686.296 263.96C684.376 262.28 681.976 261.44 679.096 261.44C676.216 261.44 673.856 262.24 672.016 263.84C670.176 265.36 668.976 267.64 668.416 270.68H689.176ZM748.721 255.56C751.361 251.72 754.561 248.68 758.321 246.44C762.081 244.2 766.121 243.08 770.441 243.08V268.16H763.841C758.721 268.16 754.921 269.16 752.441 271.16C749.961 273.16 748.721 276.64 748.721 281.6V311H725.201V243.68H748.721V255.56ZM845.593 276.56C845.593 278.4 845.473 280.24 845.233 282.08H800.713C800.953 285.76 801.953 288.52 803.713 290.36C805.553 292.12 807.873 293 810.673 293C814.593 293 817.393 291.24 819.073 287.72H844.153C843.113 292.36 841.073 296.52 838.033 300.2C835.073 303.8 831.313 306.64 826.753 308.72C822.193 310.8 817.153 311.84 811.633 311.84C804.993 311.84 799.073 310.44 793.873 307.64C788.753 304.84 784.713 300.84 781.753 295.64C778.873 290.44 777.433 284.32 777.433 277.28C777.433 270.24 778.873 264.16 781.753 259.04C784.633 253.84 788.633 249.84 793.753 247.04C798.953 244.24 804.913 242.84 811.633 242.84C818.273 242.84 824.153 244.2 829.273 246.92C834.393 249.64 838.393 253.56 841.273 258.68C844.153 263.72 845.593 269.68 845.593 276.56ZM821.593 270.68C821.593 267.8 820.633 265.56 818.713 263.96C816.793 262.28 814.393 261.44 811.513 261.44C808.633 261.44 806.273 262.24 804.433 263.84C802.593 265.36 801.393 267.64 800.833 270.68H821.593ZM901.658 243.08C909.418 243.08 915.578 245.68 920.138 250.88C924.698 256 926.978 262.96 926.978 271.76V311H903.458V274.88C903.458 271.04 902.458 268.04 900.458 265.88C898.458 263.64 895.778 262.52 892.418 262.52C888.898 262.52 886.138 263.64 884.138 265.88C882.138 268.04 881.138 271.04 881.138 274.88V311H857.618V243.68H881.138V253.28C883.218 250.24 886.018 247.8 889.538 245.96C893.058 244.04 897.098 243.08 901.658 243.08ZM938.444 277.28C938.444 270.32 939.884 264.24 942.764 259.04C945.644 253.84 949.644 249.84 954.764 247.04C959.964 244.24 965.884 242.84 972.524 242.84C981.084 242.84 988.284 245.2 994.124 249.92C999.964 254.56 1003.72 261.08 1005.4 269.48H980.444C979.004 265.08 976.204 262.88 972.044 262.88C969.084 262.88 966.724 264.12 964.964 266.6C963.284 269 962.444 272.56 962.444 277.28C962.444 282 963.284 285.6 964.964 288.08C966.724 290.56 969.084 291.8 972.044 291.8C976.284 291.8 979.084 289.6 980.444 285.2H1005.4C1003.72 293.52 999.964 300.04 994.124 304.76C988.284 309.48 981.084 311.84 972.524 311.84C965.884 311.84 959.964 310.44 954.764 307.64C949.644 304.84 945.644 300.84 942.764 295.64C939.884 290.44 938.444 284.32 938.444 277.28ZM1081.89 276.56C1081.89 278.4 1081.77 280.24 1081.53 282.08H1037.01C1037.25 285.76 1038.25 288.52 1040.01 290.36C1041.85 292.12 1044.17 293 1046.97 293C1050.89 293 1053.69 291.24 1055.37 287.72H1080.45C1079.41 292.36 1077.37 296.52 1074.33 300.2C1071.37 303.8 1067.61 306.64 1063.05 308.72C1058.49 310.8 1053.45 311.84 1047.93 311.84C1041.29 311.84 1035.37 310.44 1030.17 307.64C1025.05 304.84 1021.01 300.84 1018.05 295.64C1015.17 290.44 1013.73 284.32 1013.73 277.28C1013.73 270.24 1015.17 264.16 1018.05 259.04C1020.93 253.84 1024.93 249.84 1030.05 247.04C1035.25 244.24 1041.21 242.84 1047.93 242.84C1054.57 242.84 1060.45 244.2 1065.57 246.92C1070.69 249.64 1074.69 253.56 1077.57 258.68C1080.45 263.72 1081.89 269.68 1081.89 276.56ZM1057.89 270.68C1057.89 267.8 1056.93 265.56 1055.01 263.96C1053.09 262.28 1050.69 261.44 1047.81 261.44C1044.93 261.44 1042.57 262.24 1040.73 263.84C1038.89 265.36 1037.69 267.64 1037.13 270.68H1057.89ZM1116.53 292.16C1124.29 286.08 1130.65 280.84 1135.61 276.44C1140.57 272.04 1144.73 267.52 1148.09 262.88C1151.45 258.16 1153.13 253.68 1153.13 249.44C1153.13 246.88 1152.53 244.88 1151.33 243.44C1150.21 242 1148.53 241.28 1146.29 241.28C1143.97 241.28 1142.17 242.28 1140.89 244.28C1139.61 246.2 1139.01 249.04 1139.09 252.8H1116.29C1116.53 245.68 1118.09 239.8 1120.97 235.16C1123.85 230.44 1127.61 227 1132.25 224.84C1136.89 222.6 1142.05 221.48 1147.73 221.48C1157.57 221.48 1164.89 223.92 1169.69 228.8C1174.49 233.68 1176.89 240 1176.89 247.76C1176.89 256.08 1174.09 263.88 1168.49 271.16C1162.97 278.44 1156.05 284.96 1147.73 290.72H1177.73V309.8H1116.53V292.16ZM1187.97 265.88C1187.97 252.12 1190.77 241.28 1196.37 233.36C1201.97 225.44 1210.77 221.48 1222.77 221.48C1234.77 221.48 1243.57 225.44 1249.17 233.36C1254.85 241.28 1257.69 252.12 1257.69 265.88C1257.69 279.8 1254.89 290.72 1249.29 298.64C1243.69 306.56 1234.85 310.52 1222.77 310.52C1210.69 310.52 1201.85 306.56 1196.25 298.64C1190.73 290.72 1187.97 279.8 1187.97 265.88ZM1234.41 265.88C1234.41 258.68 1233.65 253.2 1232.13 249.44C1230.61 245.6 1227.49 243.68 1222.77 243.68C1218.05 243.68 1214.93 245.6 1213.41 249.44C1211.89 253.2 1211.13 258.68 1211.13 265.88C1211.13 273.24 1211.85 278.84 1213.29 282.68C1214.81 286.44 1217.97 288.32 1222.77 288.32C1227.57 288.32 1230.69 286.44 1232.13 282.68C1233.65 278.84 1234.41 273.24 1234.41 265.88ZM1268.52 292.16C1276.28 286.08 1282.64 280.84 1287.6 276.44C1292.56 272.04 1296.72 267.52 1300.08 262.88C1303.44 258.16 1305.12 253.68 1305.12 249.44C1305.12 246.88 1304.52 244.88 1303.32 243.44C1302.2 242 1300.52 241.28 1298.28 241.28C1295.96 241.28 1294.16 242.28 1292.88 244.28C1291.6 246.2 1291 249.04 1291.08 252.8H1268.28C1268.52 245.68 1270.08 239.8 1272.96 235.16C1275.84 230.44 1279.6 227 1284.24 224.84C1288.88 222.6 1294.04 221.48 1299.72 221.48C1309.56 221.48 1316.88 223.92 1321.68 228.8C1326.48 233.68 1328.88 240 1328.88 247.76C1328.88 256.08 1326.08 263.88 1320.48 271.16C1314.96 278.44 1308.04 284.96 1299.72 290.72H1329.72V309.8H1268.52V292.16ZM1341.4 296.6V277.16L1378.24 224.6H1404.04V276.2H1413.28V296.6H1404.04V311H1380.28V296.6H1341.4ZM1382.08 251.12L1365.52 276.2H1382.08V251.12Z" fill="#222222"/>
<path d="M179.32 364.4V404.48C179.32 409.44 177.8 413.36 174.76 416.24C171.773 419.12 167.827 420.56 162.92 420.56C158.013 420.56 154.04 419.12 151 416.24C148.013 413.36 146.52 409.44 146.52 404.48H155.72C155.773 406.933 156.387 408.88 157.56 410.32C158.787 411.76 160.573 412.48 162.92 412.48C165.267 412.48 167.053 411.76 168.28 410.32C169.507 408.827 170.12 406.88 170.12 404.48V364.4H179.32ZM234.076 375.92V420H224.956V414.8C223.516 416.613 221.623 418.053 219.276 419.12C216.983 420.133 214.53 420.64 211.916 420.64C208.45 420.64 205.33 419.92 202.556 418.48C199.836 417.04 197.676 414.907 196.076 412.08C194.53 409.253 193.756 405.84 193.756 401.84V375.92H202.796V400.48C202.796 404.427 203.783 407.467 205.756 409.6C207.73 411.68 210.423 412.72 213.836 412.72C217.25 412.72 219.943 411.68 221.916 409.6C223.943 407.467 224.956 404.427 224.956 400.48V375.92H234.076ZM268.349 375.2C271.816 375.2 274.909 375.92 277.629 377.36C280.403 378.8 282.563 380.933 284.109 383.76C285.656 386.587 286.429 390 286.429 394V420H277.389V395.36C277.389 391.413 276.403 388.4 274.429 386.32C272.456 384.187 269.763 383.12 266.349 383.12C262.936 383.12 260.216 384.187 258.189 386.32C256.216 388.4 255.229 391.413 255.229 395.36V420H246.109V375.92H255.229V380.96C256.723 379.147 258.616 377.733 260.909 376.72C263.256 375.707 265.736 375.2 268.349 375.2ZM338.463 396.88C338.463 398.533 338.356 400.027 338.143 401.36H304.463C304.729 404.88 306.036 407.707 308.383 409.84C310.729 411.973 313.609 413.04 317.023 413.04C321.929 413.04 325.396 410.987 327.423 406.88H337.262C335.929 410.933 333.503 414.267 329.983 416.88C326.516 419.44 322.196 420.72 317.023 420.72C312.809 420.72 309.023 419.787 305.663 417.92C302.356 416 299.743 413.333 297.823 409.92C295.956 406.453 295.023 402.453 295.023 397.92C295.023 393.387 295.929 389.413 297.743 386C299.609 382.533 302.196 379.867 305.503 378C308.863 376.133 312.703 375.2 317.023 375.2C321.183 375.2 324.889 376.107 328.143 377.92C331.396 379.733 333.929 382.293 335.743 385.6C337.556 388.853 338.463 392.613 338.463 396.88ZM328.943 394C328.889 390.64 327.689 387.947 325.343 385.92C322.996 383.893 320.089 382.88 316.623 382.88C313.476 382.88 310.783 383.893 308.543 385.92C306.303 387.893 304.969 390.587 304.543 394H328.943ZM376.859 389.52C371.312 386.747 368.539 382.373 368.539 376.4C368.539 373.52 369.259 370.88 370.699 368.48C372.139 366.08 374.299 364.187 377.179 362.8C380.059 361.36 383.579 360.64 387.739 360.64C391.845 360.64 395.339 361.36 398.219 362.8C401.152 364.187 403.339 366.08 404.779 368.48C406.219 370.88 406.939 373.52 406.939 376.4C406.939 379.387 406.165 382.027 404.619 384.32C403.125 386.56 401.125 388.293 398.619 389.52C401.659 390.64 404.059 392.48 405.819 395.04C407.579 397.547 408.459 400.507 408.459 403.92C408.459 407.387 407.579 410.453 405.819 413.12C404.059 415.787 401.605 417.84 398.459 419.28C395.312 420.72 391.739 421.44 387.739 421.44C383.739 421.44 380.165 420.72 377.019 419.28C373.925 417.84 371.499 415.787 369.739 413.12C367.979 410.453 367.099 407.387 367.099 403.92C367.099 400.453 367.979 397.467 369.739 394.96C371.499 392.453 373.872 390.64 376.859 389.52ZM398.219 377.52C398.219 374.533 397.285 372.24 395.419 370.64C393.552 369.04 390.992 368.24 387.739 368.24C384.539 368.24 382.005 369.04 380.139 370.64C378.272 372.24 377.339 374.56 377.339 377.6C377.339 380.267 378.299 382.453 380.219 384.16C382.192 385.813 384.699 386.64 387.739 386.64C390.779 386.64 393.285 385.787 395.259 384.08C397.232 382.373 398.219 380.187 398.219 377.52ZM387.739 393.52C384.219 393.52 381.339 394.4 379.099 396.16C376.912 397.867 375.819 400.347 375.819 403.6C375.819 406.64 376.885 409.12 379.019 411.04C381.152 412.907 384.059 413.84 387.739 413.84C391.365 413.84 394.219 412.88 396.299 410.96C398.432 409.04 399.499 406.587 399.499 403.6C399.499 400.4 398.405 397.92 396.219 396.16C394.085 394.4 391.259 393.52 387.739 393.52ZM429.874 383.36V407.76C429.874 409.413 430.248 410.613 430.994 411.36C431.794 412.053 433.128 412.4 434.994 412.4H440.594V420H433.394C429.288 420 426.141 419.04 423.954 417.12C421.768 415.2 420.674 412.08 420.674 407.76V383.36H415.474V375.92H420.674V364.96H429.874V375.92H440.594V383.36H429.874ZM471.8 375.2C475.16 375.2 478.147 375.92 480.76 377.36C483.427 378.8 485.507 380.933 487 383.76C488.547 386.587 489.32 390 489.32 394V420H480.28V395.36C480.28 391.413 479.293 388.4 477.32 386.32C475.347 384.187 472.653 383.12 469.24 383.12C465.827 383.12 463.107 384.187 461.08 386.32C459.107 388.4 458.12 391.413 458.12 395.36V420H449V360.8H458.12V381.04C459.667 379.173 461.613 377.733 463.96 376.72C466.36 375.707 468.973 375.2 471.8 375.2ZM510.953 409.04L501.273 431.12H495.353L501.033 409.04H510.953ZM543.543 407.6C548.663 403.173 552.69 399.547 555.623 396.72C558.61 393.84 561.09 390.853 563.063 387.76C565.036 384.667 566.023 381.573 566.023 378.48C566.023 375.28 565.25 372.773 563.703 370.96C562.21 369.147 559.836 368.24 556.583 368.24C553.436 368.24 550.983 369.253 549.223 371.28C547.516 373.253 546.61 375.92 546.503 379.28H537.703C537.863 373.2 539.676 368.56 543.143 365.36C546.663 362.107 551.116 360.48 556.503 360.48C562.316 360.48 566.85 362.08 570.103 365.28C573.41 368.48 575.063 372.747 575.063 378.08C575.063 381.92 574.076 385.627 572.103 389.2C570.183 392.72 567.863 395.893 565.143 398.72C562.476 401.493 559.063 404.72 554.903 408.4L551.303 411.6H576.663V419.2H537.783V412.56L543.543 407.6ZM584.675 390.08C584.675 380.853 586.222 373.653 589.315 368.48C592.462 363.253 597.848 360.64 605.475 360.64C613.102 360.64 618.462 363.253 621.555 368.48C624.702 373.653 626.275 380.853 626.275 390.08C626.275 399.413 624.702 406.72 621.555 412C618.462 417.227 613.102 419.84 605.475 419.84C597.848 419.84 592.462 417.227 589.315 412C586.222 406.72 584.675 399.413 584.675 390.08ZM617.315 390.08C617.315 385.76 617.022 382.107 616.435 379.12C615.902 376.133 614.782 373.707 613.075 371.84C611.368 369.92 608.835 368.96 605.475 368.96C602.115 368.96 599.582 369.92 597.875 371.84C596.168 373.707 595.022 376.133 594.435 379.12C593.902 382.107 593.635 385.76 593.635 390.08C593.635 394.56 593.902 398.32 594.435 401.36C594.968 404.4 596.088 406.853 597.795 408.72C599.555 410.587 602.115 411.52 605.475 411.52C608.835 411.52 611.368 410.587 613.075 408.72C614.835 406.853 615.982 404.4 616.515 401.36C617.048 398.32 617.315 394.56 617.315 390.08ZM640.965 407.6C646.085 403.173 650.112 399.547 653.045 396.72C656.032 393.84 658.512 390.853 660.485 387.76C662.458 384.667 663.445 381.573 663.445 378.48C663.445 375.28 662.672 372.773 661.125 370.96C659.632 369.147 657.258 368.24 654.005 368.24C650.858 368.24 648.405 369.253 646.645 371.28C644.938 373.253 644.032 375.92 643.925 379.28H635.125C635.285 373.2 637.098 368.56 640.565 365.36C644.085 362.107 648.538 360.48 653.925 360.48C659.738 360.48 664.272 362.08 667.525 365.28C670.832 368.48 672.485 372.747 672.485 378.08C672.485 381.92 671.498 385.627 669.525 389.2C667.605 392.72 665.285 395.893 662.565 398.72C659.898 401.493 656.485 404.72 652.325 408.4L648.725 411.6H674.085V419.2H635.205V412.56L640.965 407.6ZM680.977 407.84V400.96L707.857 362.4H718.897V399.92H726.337V407.84H718.897V420H709.937V407.84H680.977ZM710.337 371.68L691.457 399.92H710.337V371.68Z" fill="#222222"/>
<path d="M156.2 553.35C153.867 553.35 151.767 552.95 149.9 552.15C148.033 551.317 146.567 550.15 145.5 548.65C144.433 547.15 143.9 545.4 143.9 543.4H150C150.133 544.9 150.717 546.133 151.75 547.1C152.817 548.067 154.3 548.55 156.2 548.55C158.167 548.55 159.7 548.083 160.8 547.15C161.9 546.183 162.45 544.95 162.45 543.45C162.45 542.283 162.1 541.333 161.4 540.6C160.733 539.867 159.883 539.3 158.85 538.9C157.85 538.5 156.45 538.067 154.65 537.6C152.383 537 150.533 536.4 149.1 535.8C147.7 535.167 146.5 534.2 145.5 532.9C144.5 531.6 144 529.867 144 527.7C144 525.7 144.5 523.95 145.5 522.45C146.5 520.95 147.9 519.8 149.7 519C151.5 518.2 153.583 517.8 155.95 517.8C159.317 517.8 162.067 518.65 164.2 520.35C166.367 522.017 167.567 524.317 167.8 527.25H161.5C161.4 525.983 160.8 524.9 159.7 524C158.6 523.1 157.15 522.65 155.35 522.65C153.717 522.65 152.383 523.067 151.35 523.9C150.317 524.733 149.8 525.933 149.8 527.5C149.8 528.567 150.117 529.45 150.75 530.15C151.417 530.817 152.25 531.35 153.25 531.75C154.25 532.15 155.617 532.583 157.35 533.05C159.65 533.683 161.517 534.317 162.95 534.95C164.417 535.583 165.65 536.567 166.65 537.9C167.683 539.2 168.2 540.95 168.2 543.15C168.2 544.917 167.717 546.583 166.75 548.15C165.817 549.717 164.433 550.983 162.6 551.95C160.8 552.883 158.667 553.35 156.2 553.35ZM189.176 525C191.276 525 193.142 525.45 194.776 526.35C196.442 527.25 197.742 528.583 198.676 530.35C199.642 532.117 200.126 534.25 200.126 536.75V553H194.476V537.6C194.476 535.133 193.859 533.25 192.626 531.95C191.392 530.617 189.709 529.95 187.576 529.95C185.442 529.95 183.742 530.617 182.476 531.95C181.242 533.25 180.626 535.133 180.626 537.6V553H174.926V516H180.626V528.65C181.592 527.483 182.809 526.583 184.276 525.95C185.776 525.317 187.409 525 189.176 525ZM210.296 521.8C209.263 521.8 208.396 521.45 207.696 520.75C206.996 520.05 206.646 519.183 206.646 518.15C206.646 517.117 206.996 516.25 207.696 515.55C208.396 514.85 209.263 514.5 210.296 514.5C211.296 514.5 212.146 514.85 212.846 515.55C213.546 516.25 213.896 517.117 213.896 518.15C213.896 519.183 213.546 520.05 212.846 520.75C212.146 521.45 211.296 521.8 210.296 521.8ZM213.096 525.45V553H207.396V525.45H213.096ZM226.28 529.55C227.247 528.217 228.563 527.133 230.23 526.3C231.93 525.433 233.813 525 235.88 525C238.313 525 240.513 525.583 242.48 526.75C244.447 527.917 245.997 529.583 247.13 531.75C248.263 533.883 248.83 536.333 248.83 539.1C248.83 541.867 248.263 544.35 247.13 546.55C245.997 548.717 244.43 550.417 242.43 551.65C240.463 552.85 238.28 553.45 235.88 553.45C233.747 553.45 231.847 553.033 230.18 552.2C228.547 551.367 227.247 550.3 226.28 549V553H220.58V516H226.28V529.55ZM243.03 539.1C243.03 537.2 242.63 535.567 241.83 534.2C241.063 532.8 240.03 531.75 238.73 531.05C237.463 530.317 236.097 529.95 234.63 529.95C233.197 529.95 231.83 530.317 230.53 531.05C229.263 531.783 228.23 532.85 227.43 534.25C226.663 535.65 226.28 537.3 226.28 539.2C226.28 541.1 226.663 542.767 227.43 544.2C228.23 545.6 229.263 546.667 230.53 547.4C231.83 548.133 233.197 548.5 234.63 548.5C236.097 548.5 237.463 548.133 238.73 547.4C240.03 546.633 241.063 545.533 241.83 544.1C242.63 542.667 243.03 541 243.03 539.1ZM279.417 525.45V553H273.717V549.75C272.817 550.883 271.633 551.783 270.167 552.45C268.733 553.083 267.2 553.4 265.567 553.4C263.4 553.4 261.45 552.95 259.717 552.05C258.017 551.15 256.667 549.817 255.667 548.05C254.7 546.283 254.217 544.15 254.217 541.65V525.45H259.867V540.8C259.867 543.267 260.483 545.167 261.717 546.5C262.95 547.8 264.633 548.45 266.767 548.45C268.9 548.45 270.583 547.8 271.817 546.5C273.083 545.167 273.717 543.267 273.717 540.8V525.45H279.417ZM311.738 525.45L294.838 565.95H288.938L294.538 552.55L283.688 525.45H290.038L297.788 546.45L305.838 525.45H311.738ZM314.139 539.1C314.139 536.333 314.706 533.883 315.839 531.75C317.006 529.617 318.572 527.967 320.539 526.8C322.539 525.6 324.739 525 327.139 525C329.306 525 331.189 525.433 332.789 526.3C334.422 527.133 335.722 528.183 336.689 529.45V525.45H342.439V553H336.689V548.9C335.722 550.2 334.406 551.283 332.739 552.15C331.072 553.017 329.172 553.45 327.039 553.45C324.672 553.45 322.506 552.85 320.539 551.65C318.572 550.417 317.006 548.717 315.839 546.55C314.706 544.35 314.139 541.867 314.139 539.1ZM336.689 539.2C336.689 537.3 336.289 535.65 335.489 534.25C334.722 532.85 333.706 531.783 332.439 531.05C331.172 530.317 329.806 529.95 328.339 529.95C326.872 529.95 325.506 530.317 324.239 531.05C322.972 531.75 321.939 532.8 321.139 534.2C320.372 535.567 319.989 537.2 319.989 539.1C319.989 541 320.372 542.667 321.139 544.1C321.939 545.533 322.972 546.633 324.239 547.4C325.539 548.133 326.906 548.5 328.339 548.5C329.806 548.5 331.172 548.133 332.439 547.4C333.706 546.667 334.722 545.6 335.489 544.2C336.289 542.767 336.689 541.1 336.689 539.2ZM356.176 546.15L350.126 559.95H346.426L349.976 546.15H356.176ZM396.595 518.25V522.9H387.345V553H381.645V522.9H372.345V518.25H396.595ZM414.317 553.45C411.717 553.45 409.367 552.867 407.267 551.7C405.167 550.5 403.517 548.833 402.317 546.7C401.117 544.533 400.517 542.033 400.517 539.2C400.517 536.4 401.134 533.917 402.367 531.75C403.601 529.583 405.284 527.917 407.417 526.75C409.551 525.583 411.934 525 414.567 525C417.201 525 419.584 525.583 421.717 526.75C423.851 527.917 425.534 529.583 426.767 531.75C428.001 533.917 428.617 536.4 428.617 539.2C428.617 542 427.984 544.483 426.717 546.65C425.451 548.817 423.717 550.5 421.517 551.7C419.351 552.867 416.951 553.45 414.317 553.45ZM414.317 548.5C415.784 548.5 417.151 548.15 418.417 547.45C419.717 546.75 420.767 545.7 421.567 544.3C422.367 542.9 422.767 541.2 422.767 539.2C422.767 537.2 422.384 535.517 421.617 534.15C420.851 532.75 419.834 531.7 418.567 531C417.301 530.3 415.934 529.95 414.467 529.95C413.001 529.95 411.634 530.3 410.367 531C409.134 531.7 408.151 532.75 407.417 534.15C406.684 535.517 406.317 537.2 406.317 539.2C406.317 542.167 407.067 544.467 408.567 546.1C410.101 547.7 412.017 548.5 414.317 548.5ZM445.152 539.25L457.852 553H450.152L439.952 541.15V553H434.252V516H439.952V537.5L449.952 525.45H457.852L445.152 539.25ZM486.738 525.45L469.838 565.95H463.938L469.538 552.55L458.688 525.45H465.038L472.788 546.45L480.838 525.45H486.738ZM502.989 553.45C500.389 553.45 498.039 552.867 495.939 551.7C493.839 550.5 492.189 548.833 490.989 546.7C489.789 544.533 489.189 542.033 489.189 539.2C489.189 536.4 489.806 533.917 491.039 531.75C492.272 529.583 493.956 527.917 496.089 526.75C498.222 525.583 500.606 525 503.239 525C505.872 525 508.256 525.583 510.389 526.75C512.522 527.917 514.206 529.583 515.439 531.75C516.672 533.917 517.289 536.4 517.289 539.2C517.289 542 516.656 544.483 515.389 546.65C514.122 548.817 512.389 550.5 510.189 551.7C508.022 552.867 505.622 553.45 502.989 553.45ZM502.989 548.5C504.456 548.5 505.822 548.15 507.089 547.45C508.389 546.75 509.439 545.7 510.239 544.3C511.039 542.9 511.439 541.2 511.439 539.2C511.439 537.2 511.056 535.517 510.289 534.15C509.522 532.75 508.506 531.7 507.239 531C505.972 530.3 504.606 529.95 503.139 529.95C501.672 529.95 500.306 530.3 499.039 531C497.806 531.7 496.822 532.75 496.089 534.15C495.356 535.517 494.989 537.2 494.989 539.2C494.989 542.167 495.739 544.467 497.239 546.1C498.772 547.7 500.689 548.5 502.989 548.5Z" fill="#222222"/>
<path fill-rule="evenodd" clip-rule="evenodd" d="M1945.1 692.545C2024.7 774 1918.98 889.342 1870.71 992.491C1816.76 1107.77 1799.64 1278.02 1672.39 1275.25C1516.35 1271.85 1378.54 1137.21 1367.28 981.538C1357.89 851.759 1518.07 808.91 1634.45 750.707C1738.62 698.607 1863.7 609.239 1945.1 692.545Z" fill="#B0DDFF"/>
</g>
<defs>
<clipPath id="clip0_126_1405">
<rect width="1920" height="1080" fill="white"/>
</clipPath>
</defs>
</svg>
