<svg width="860" height="1080" viewBox="0 0 860 1080" fill="none" xmlns="http://www.w3.org/2000/svg">
<g clip-path="url(#clip0_127_1491)">
<rect width="860" height="1080" fill="#EBF5FA"/>
<circle cx="377.459" cy="864.459" r="207.973" stroke="#4C75F2" stroke-opacity="0.1" stroke-width="8"/>
<circle cx="377.459" cy="864.459" r="256.459" stroke="#4C75F2" stroke-opacity="0.1" stroke-width="8"/>
<circle cx="378.081" cy="863.838" r="153.892" stroke="#4C75F2" stroke-opacity="0.1" stroke-width="8"/>
<path d="M-305 309C818.826 328.565 575.696 730.595 2034 534.01" stroke="white" stroke-opacity="0.6" stroke-width="24" stroke-linecap="round"/>
<path fill-rule="evenodd" clip-rule="evenodd" d="M18.3738 -7.77375C106.287 -23.9395 198.017 22.5339 257.319 89.4169C313.906 153.237 334.173 244.938 316.41 328.362C301.189 399.847 224.902 431.531 173.427 483.415C121.558 535.697 90.7741 615.278 18.3738 628.769C-62.6963 643.876 -145.943 609.087 -207.7 554.436C-273.333 496.355 -334.688 414.943 -321.094 328.362C-308.187 246.154 -205.476 222.195 -146.344 163.644C-87.8069 105.681 -62.6469 7.12463 18.3738 -7.77375Z" fill="#B0DDFF"/>
<path fill-rule="evenodd" clip-rule="evenodd" d="M72.8708 619.127C229.42 614.837 368.086 719.871 416.822 868.703C465.907 1018.6 416.905 1185.65 288.278 1276.94C163.684 1365.37 -4.75258 1347.12 -125.652 1253.7C-236.155 1168.32 -259.272 1019.36 -217.577 886.087C-174.17 747.337 -72.4563 623.109 72.8708 619.127Z" fill="#E9CDFF"/>
<path fill-rule="evenodd" clip-rule="evenodd" d="M922.091 -69.2725C993.767 -76.9505 1076.89 -77.4302 1125.1 -23.8371C1172.38 28.7276 1137.74 108.902 1145.58 179.168C1155.41 267.271 1225.47 359.543 1176.09 433.168C1124.74 509.74 1014.24 515.509 922.091 512.398C833.426 509.405 742.253 484.076 684.681 416.578C630.265 352.781 622.714 261.641 637.864 179.168C650.591 109.884 705.331 61.8073 758.369 15.4468C806.464 -26.5929 858.575 -62.4687 922.091 -69.2725Z" fill="#A8E7A8"/>
<path fill-rule="evenodd" clip-rule="evenodd" d="M658.222 769.777C732.932 779.02 769.898 848.653 798.463 918.302C840.441 1020.65 924.261 1142.6 841.011 1215.46C746.982 1297.74 606.037 1248.27 504.29 1175.74C398.841 1100.57 299.603 983.349 345.515 862.265C388.123 749.897 538.957 755.022 658.222 769.777Z" fill="#FFC8E5"/>
<path d="M121.6 151.7C120.467 149.833 118.9 148.4 116.9 147.4C114.967 146.4 112.667 145.9 110 145.9C105.067 145.9 101.167 147.5 98.3 150.7C95.5 153.9 94.1 158.2 94.1 163.6C94.1 169.667 95.6 174.3 98.6 177.5C101.667 180.633 106.1 182.2 111.9 182.2C118.767 182.2 123.667 179.1 126.6 172.9H106.9V158.8H143.5V177.8C141.967 181.533 139.7 185.033 136.7 188.3C133.767 191.567 130.033 194.267 125.5 196.4C120.967 198.467 115.8 199.5 110 199.5C102.933 199.5 96.6667 198 91.2 195C85.8 191.933 81.6 187.7 78.6 182.3C75.6667 176.833 74.2 170.6 74.2 163.6C74.2 156.667 75.6667 150.5 78.6 145.1C81.6 139.633 85.8 135.4 91.2 132.4C96.6 129.333 102.833 127.8 109.9 127.8C118.767 127.8 126.1 129.933 131.9 134.2C137.7 138.467 141.3 144.3 142.7 151.7H121.6ZM180.384 199.7C174.784 199.7 169.75 198.533 165.284 196.2C160.884 193.867 157.417 190.533 154.884 186.2C152.35 181.867 151.084 176.767 151.084 170.9C151.084 165.1 152.35 160.033 154.884 155.7C157.484 151.367 160.984 148.033 165.384 145.7C169.85 143.367 174.884 142.2 180.484 142.2C186.084 142.2 191.084 143.367 195.484 145.7C199.95 148.033 203.45 151.367 205.984 155.7C208.584 160.033 209.884 165.1 209.884 170.9C209.884 176.7 208.584 181.8 205.984 186.2C203.45 190.533 199.95 193.867 195.484 196.2C191.017 198.533 185.984 199.7 180.384 199.7ZM180.384 182.7C183.117 182.7 185.384 181.7 187.184 179.7C189.05 177.633 189.984 174.7 189.984 170.9C189.984 167.1 189.05 164.2 187.184 162.2C185.384 160.2 183.15 159.2 180.484 159.2C177.817 159.2 175.584 160.2 173.784 162.2C171.984 164.2 171.084 167.1 171.084 170.9C171.084 174.767 171.95 177.7 173.684 179.7C175.417 181.7 177.65 182.7 180.384 182.7Z" fill="#222222"/>
<path d="M74.2 294.6C74.2 287.667 75.6333 281.5 78.5 276.1C81.4333 270.633 85.5667 266.4 90.9 263.4C96.2333 260.333 102.367 258.8 109.3 258.8C118.1 258.8 125.5 261.167 131.5 265.9C137.5 270.567 141.367 276.933 143.1 285H122C120.733 282.333 118.967 280.3 116.7 278.9C114.5 277.5 111.933 276.8 109 276.8C104.467 276.8 100.833 278.433 98.1 281.7C95.4333 284.9 94.1 289.2 94.1 294.6C94.1 300.067 95.4333 304.433 98.1 307.7C100.833 310.9 104.467 312.5 109 312.5C111.933 312.5 114.5 311.8 116.7 310.4C118.967 309 120.733 306.967 122 304.3H143.1C141.367 312.367 137.5 318.767 131.5 323.5C125.5 328.167 118.1 330.5 109.3 330.5C102.367 330.5 96.2333 329 90.9 326C85.5667 322.933 81.4333 318.7 78.5 313.3C75.6333 307.833 74.2 301.6 74.2 294.6ZM180.481 330.7C174.881 330.7 169.848 329.533 165.381 327.2C160.981 324.867 157.515 321.533 154.981 317.2C152.448 312.867 151.181 307.767 151.181 301.9C151.181 296.1 152.448 291.033 154.981 286.7C157.581 282.367 161.081 279.033 165.481 276.7C169.948 274.367 174.981 273.2 180.581 273.2C186.181 273.2 191.181 274.367 195.581 276.7C200.048 279.033 203.548 282.367 206.081 286.7C208.681 291.033 209.981 296.1 209.981 301.9C209.981 307.7 208.681 312.8 206.081 317.2C203.548 321.533 200.048 324.867 195.581 327.2C191.115 329.533 186.081 330.7 180.481 330.7ZM180.481 313.7C183.215 313.7 185.481 312.7 187.281 310.7C189.148 308.633 190.081 305.7 190.081 301.9C190.081 298.1 189.148 295.2 187.281 293.2C185.481 291.2 183.248 290.2 180.581 290.2C177.915 290.2 175.681 291.2 173.881 293.2C172.081 295.2 171.181 298.1 171.181 301.9C171.181 305.767 172.048 308.7 173.781 310.7C175.515 312.7 177.748 313.7 180.481 313.7ZM256.655 273.4C263.122 273.4 268.255 275.567 272.055 279.9C275.855 284.167 277.755 289.967 277.755 297.3V330H258.155V299.9C258.155 296.7 257.322 294.2 255.655 292.4C253.989 290.533 251.755 289.6 248.955 289.6C246.022 289.6 243.722 290.533 242.055 292.4C240.389 294.2 239.555 296.7 239.555 299.9V330H219.955V273.9H239.555V281.9C241.289 279.367 243.622 277.333 246.555 275.8C249.489 274.2 252.855 273.4 256.655 273.4ZM320.81 290.2H312.01V330H292.31V290.2H286.21V273.9H292.31V273.4C292.31 266.2 294.41 260.7 298.61 256.9C302.877 253.033 308.977 251.1 316.91 251.1C318.51 251.1 319.743 251.133 320.61 251.2V267.9C320.077 267.833 319.343 267.8 318.41 267.8C316.277 267.8 314.71 268.3 313.71 269.3C312.71 270.233 312.143 271.767 312.01 273.9H320.81V290.2ZM383.415 301.3C383.415 302.833 383.315 304.367 383.115 305.9H346.015C346.215 308.967 347.048 311.267 348.515 312.8C350.048 314.267 351.982 315 354.315 315C357.582 315 359.915 313.533 361.315 310.6H382.215C381.348 314.467 379.648 317.933 377.115 321C374.648 324 371.515 326.367 367.715 328.1C363.915 329.833 359.715 330.7 355.115 330.7C349.582 330.7 344.648 329.533 340.315 327.2C336.048 324.867 332.682 321.533 330.215 317.2C327.815 312.867 326.615 307.767 326.615 301.9C326.615 296.033 327.815 290.967 330.215 286.7C332.615 282.367 335.948 279.033 340.215 276.7C344.548 274.367 349.515 273.2 355.115 273.2C360.648 273.2 365.548 274.333 369.815 276.6C374.082 278.867 377.415 282.133 379.815 286.4C382.215 290.6 383.415 295.567 383.415 301.3ZM363.415 296.4C363.415 294 362.615 292.133 361.015 290.8C359.415 289.4 357.415 288.7 355.015 288.7C352.615 288.7 350.648 289.367 349.115 290.7C347.582 291.967 346.582 293.867 346.115 296.4H363.415ZM413.036 283.8C415.236 280.6 417.903 278.067 421.036 276.2C424.169 274.333 427.536 273.4 431.136 273.4V294.3H425.636C421.369 294.3 418.203 295.133 416.136 296.8C414.069 298.467 413.036 301.367 413.036 305.5V330H393.436V273.9H413.036V283.8ZM493.763 301.3C493.763 302.833 493.663 304.367 493.463 305.9H456.363C456.563 308.967 457.396 311.267 458.863 312.8C460.396 314.267 462.329 315 464.663 315C467.929 315 470.263 313.533 471.663 310.6H492.563C491.696 314.467 489.996 317.933 487.463 321C484.996 324 481.863 326.367 478.063 328.1C474.263 329.833 470.063 330.7 465.463 330.7C459.929 330.7 454.996 329.533 450.663 327.2C446.396 324.867 443.029 321.533 440.563 317.2C438.163 312.867 436.963 307.767 436.963 301.9C436.963 296.033 438.163 290.967 440.563 286.7C442.963 282.367 446.296 279.033 450.563 276.7C454.896 274.367 459.863 273.2 465.463 273.2C470.996 273.2 475.896 274.333 480.163 276.6C484.429 278.867 487.763 282.133 490.163 286.4C492.563 290.6 493.763 295.567 493.763 301.3ZM473.763 296.4C473.763 294 472.963 292.133 471.363 290.8C469.763 289.4 467.763 288.7 465.363 288.7C462.963 288.7 460.996 289.367 459.463 290.7C457.929 291.967 456.929 293.867 456.463 296.4H473.763ZM540.484 273.4C546.95 273.4 552.084 275.567 555.884 279.9C559.684 284.167 561.584 289.967 561.584 297.3V330H541.984V299.9C541.984 296.7 541.15 294.2 539.484 292.4C537.817 290.533 535.584 289.6 532.784 289.6C529.85 289.6 527.55 290.533 525.884 292.4C524.217 294.2 523.384 296.7 523.384 299.9V330H503.784V273.9H523.384V281.9C525.117 279.367 527.45 277.333 530.384 275.8C533.317 274.2 536.684 273.4 540.484 273.4ZM571.138 301.9C571.138 296.1 572.338 291.033 574.738 286.7C577.138 282.367 580.472 279.033 584.738 276.7C589.072 274.367 594.005 273.2 599.538 273.2C606.672 273.2 612.672 275.167 617.538 279.1C622.405 282.967 625.538 288.4 626.938 295.4H606.138C604.938 291.733 602.605 289.9 599.138 289.9C596.672 289.9 594.705 290.933 593.238 293C591.838 295 591.138 297.967 591.138 301.9C591.138 305.833 591.838 308.833 593.238 310.9C594.705 312.967 596.672 314 599.138 314C602.672 314 605.005 312.167 606.138 308.5H626.938C625.538 315.433 622.405 320.867 617.538 324.8C612.672 328.733 606.672 330.7 599.538 330.7C594.005 330.7 589.072 329.533 584.738 327.2C580.472 324.867 577.138 321.533 574.738 317.2C572.338 312.867 571.138 307.767 571.138 301.9ZM690.68 301.3C690.68 302.833 690.58 304.367 690.38 305.9H653.28C653.48 308.967 654.314 311.267 655.78 312.8C657.314 314.267 659.247 315 661.58 315C664.847 315 667.18 313.533 668.58 310.6H689.48C688.614 314.467 686.914 317.933 684.38 321C681.914 324 678.78 326.367 674.98 328.1C671.18 329.833 666.98 330.7 662.38 330.7C656.847 330.7 651.914 329.533 647.58 327.2C643.314 324.867 639.947 321.533 637.48 317.2C635.08 312.867 633.88 307.767 633.88 301.9C633.88 296.033 635.08 290.967 637.48 286.7C639.88 282.367 643.214 279.033 647.48 276.7C651.814 274.367 656.78 273.2 662.38 273.2C667.914 273.2 672.814 274.333 677.08 276.6C681.347 278.867 684.68 282.133 687.08 286.4C689.48 290.6 690.68 295.567 690.68 301.3ZM670.68 296.4C670.68 294 669.88 292.133 668.28 290.8C666.68 289.4 664.68 288.7 662.28 288.7C659.88 288.7 657.914 289.367 656.38 290.7C654.847 291.967 653.847 293.867 653.38 296.4H670.68Z" fill="#222222"/>
<path d="M74.3 448.3C80.7667 443.233 86.0667 438.867 90.2 435.2C94.3333 431.533 97.8 427.767 100.6 423.9C103.4 419.967 104.8 416.233 104.8 412.7C104.8 410.567 104.3 408.9 103.3 407.7C102.367 406.5 100.967 405.9 99.1 405.9C97.1667 405.9 95.6667 406.733 94.6 408.4C93.5333 410 93.0333 412.367 93.1 415.5H74.1C74.3 409.567 75.6 404.667 78 400.8C80.4 396.867 83.5333 394 87.4 392.2C91.2667 390.333 95.5667 389.4 100.3 389.4C108.5 389.4 114.6 391.433 118.6 395.5C122.6 399.567 124.6 404.833 124.6 411.3C124.6 418.233 122.267 424.733 117.6 430.8C113 436.867 107.233 442.3 100.3 447.1H125.3V463H74.3V448.3ZM133.834 426.4C133.834 414.933 136.167 405.9 140.834 399.3C145.5 392.7 152.834 389.4 162.834 389.4C172.834 389.4 180.167 392.7 184.834 399.3C189.567 405.9 191.934 414.933 191.934 426.4C191.934 438 189.6 447.1 184.934 453.7C180.267 460.3 172.9 463.6 162.834 463.6C152.767 463.6 145.4 460.3 140.734 453.7C136.134 447.1 133.834 438 133.834 426.4ZM172.534 426.4C172.534 420.4 171.9 415.833 170.634 412.7C169.367 409.5 166.767 407.9 162.834 407.9C158.9 407.9 156.3 409.5 155.034 412.7C153.767 415.833 153.134 420.4 153.134 426.4C153.134 432.533 153.734 437.2 154.934 440.4C156.2 443.533 158.834 445.1 162.834 445.1C166.834 445.1 169.434 443.533 170.634 440.4C171.9 437.2 172.534 432.533 172.534 426.4ZM200.956 448.3C207.423 443.233 212.723 438.867 216.856 435.2C220.99 431.533 224.456 427.767 227.256 423.9C230.056 419.967 231.456 416.233 231.456 412.7C231.456 410.567 230.956 408.9 229.956 407.7C229.023 406.5 227.623 405.9 225.756 405.9C223.823 405.9 222.323 406.733 221.256 408.4C220.19 410 219.69 412.367 219.756 415.5H200.756C200.956 409.567 202.256 404.667 204.656 400.8C207.056 396.867 210.19 394 214.056 392.2C217.923 390.333 222.223 389.4 226.956 389.4C235.156 389.4 241.256 391.433 245.256 395.5C249.256 399.567 251.256 404.833 251.256 411.3C251.256 418.233 248.923 424.733 244.256 430.8C239.656 436.867 233.89 442.3 226.956 447.1H251.956V463H200.956V448.3ZM261.69 452V435.8L292.39 392H313.89V435H321.59V452H313.89V464H294.09V452H261.69ZM295.59 414.1L281.79 435H295.59V414.1Z" fill="#222222"/>
<path d="M100.056 876.52V908.584C100.056 912.552 98.84 915.688 96.408 917.992C94.0187 920.296 90.8613 921.448 86.936 921.448C83.0107 921.448 79.832 920.296 77.4 917.992C75.0107 915.688 73.816 912.552 73.816 908.584H81.176C81.2187 910.547 81.7093 912.104 82.648 913.256C83.6293 914.408 85.0587 914.984 86.936 914.984C88.8133 914.984 90.2427 914.408 91.224 913.256C92.2053 912.061 92.696 910.504 92.696 908.584V876.52H100.056ZM143.861 885.736V921H136.565V916.84C135.413 918.291 133.898 919.443 132.021 920.296C130.186 921.107 128.224 921.512 126.133 921.512C123.36 921.512 120.864 920.936 118.645 919.784C116.469 918.632 114.741 916.925 113.461 914.664C112.224 912.403 111.605 909.672 111.605 906.472V885.736H118.837V905.384C118.837 908.541 119.626 910.973 121.205 912.68C122.784 914.344 124.938 915.176 127.669 915.176C130.4 915.176 132.554 914.344 134.133 912.68C135.754 910.973 136.565 908.541 136.565 905.384V885.736H143.861ZM171.28 885.16C174.053 885.16 176.528 885.736 178.704 886.888C180.922 888.04 182.65 889.747 183.888 892.008C185.125 894.269 185.744 897 185.744 900.2V921H178.512V901.288C178.512 898.131 177.722 895.72 176.144 894.056C174.565 892.349 172.41 891.496 169.68 891.496C166.949 891.496 164.773 892.349 163.152 894.056C161.573 895.72 160.784 898.131 160.784 901.288V921H153.488V885.736H160.784V889.768C161.978 888.317 163.493 887.187 165.328 886.376C167.205 885.565 169.189 885.16 171.28 885.16ZM227.37 902.504C227.37 903.827 227.285 905.021 227.114 906.088H200.17C200.383 908.904 201.429 911.165 203.306 912.872C205.183 914.579 207.487 915.432 210.218 915.432C214.143 915.432 216.917 913.789 218.538 910.504H226.41C225.343 913.747 223.402 916.413 220.586 918.504C217.813 920.552 214.357 921.576 210.218 921.576C206.847 921.576 203.818 920.829 201.13 919.336C198.485 917.8 196.394 915.667 194.858 912.936C193.365 910.163 192.618 906.963 192.618 903.336C192.618 899.709 193.343 896.531 194.794 893.8C196.287 891.027 198.357 888.893 201.002 887.4C203.69 885.907 206.762 885.16 210.218 885.16C213.546 885.16 216.511 885.885 219.114 887.336C221.717 888.787 223.743 890.835 225.194 893.48C226.645 896.083 227.37 899.091 227.37 902.504ZM219.754 900.2C219.711 897.512 218.751 895.357 216.874 893.736C214.997 892.115 212.671 891.304 209.898 891.304C207.381 891.304 205.226 892.115 203.434 893.736C201.642 895.315 200.575 897.469 200.234 900.2H219.754ZM258.087 896.616C253.65 894.397 251.431 890.899 251.431 886.12C251.431 883.816 252.007 881.704 253.159 879.784C254.311 877.864 256.039 876.349 258.343 875.24C260.647 874.088 263.463 873.512 266.791 873.512C270.076 873.512 272.871 874.088 275.175 875.24C277.522 876.349 279.271 877.864 280.423 879.784C281.575 881.704 282.151 883.816 282.151 886.12C282.151 888.509 281.532 890.621 280.295 892.456C279.1 894.248 277.5 895.635 275.495 896.616C277.927 897.512 279.847 898.984 281.255 901.032C282.663 903.037 283.367 905.405 283.367 908.136C283.367 910.909 282.663 913.363 281.255 915.496C279.847 917.629 277.884 919.272 275.367 920.424C272.85 921.576 269.991 922.152 266.791 922.152C263.591 922.152 260.732 921.576 258.215 920.424C255.74 919.272 253.799 917.629 252.391 915.496C250.983 913.363 250.279 910.909 250.279 908.136C250.279 905.363 250.983 902.973 252.391 900.968C253.799 898.963 255.698 897.512 258.087 896.616ZM275.175 887.016C275.175 884.627 274.428 882.792 272.935 881.512C271.442 880.232 269.394 879.592 266.791 879.592C264.231 879.592 262.204 880.232 260.711 881.512C259.218 882.792 258.471 884.648 258.471 887.08C258.471 889.213 259.239 890.963 260.775 892.328C262.354 893.651 264.359 894.312 266.791 894.312C269.223 894.312 271.228 893.629 272.807 892.264C274.386 890.899 275.175 889.149 275.175 887.016ZM266.791 899.816C263.975 899.816 261.671 900.52 259.879 901.928C258.13 903.293 257.255 905.277 257.255 907.88C257.255 910.312 258.108 912.296 259.815 913.832C261.522 915.325 263.847 916.072 266.791 916.072C269.692 916.072 271.975 915.304 273.639 913.768C275.346 912.232 276.199 910.269 276.199 907.88C276.199 905.32 275.324 903.336 273.575 901.928C271.868 900.52 269.607 899.816 266.791 899.816ZM300.5 891.688V911.208C300.5 912.531 300.798 913.491 301.396 914.088C302.036 914.643 303.102 914.92 304.596 914.92H309.076V921H303.316C300.03 921 297.513 920.232 295.764 918.696C294.014 917.16 293.14 914.664 293.14 911.208V891.688H288.98V885.736H293.14V876.968H300.5V885.736H309.076V891.688H300.5ZM334.04 885.16C336.728 885.16 339.117 885.736 341.208 886.888C343.341 888.04 345.005 889.747 346.2 892.008C347.437 894.269 348.056 897 348.056 900.2V921H340.824V901.288C340.824 898.131 340.035 895.72 338.456 894.056C336.877 892.349 334.723 891.496 331.992 891.496C329.261 891.496 327.085 892.349 325.464 894.056C323.885 895.72 323.096 898.131 323.096 901.288V921H315.8V873.64H323.096V889.832C324.333 888.339 325.891 887.187 327.768 886.376C329.688 885.565 331.779 885.16 334.04 885.16ZM365.363 912.232L357.619 929.896H352.883L357.427 912.232H365.363ZM391.435 911.08C395.531 907.539 398.752 904.637 401.099 902.376C403.488 900.072 405.472 897.683 407.051 895.208C408.629 892.733 409.419 890.259 409.419 887.784C409.419 885.224 408.8 883.219 407.563 881.768C406.368 880.317 404.469 879.592 401.867 879.592C399.349 879.592 397.387 880.403 395.979 882.024C394.613 883.603 393.888 885.736 393.803 888.424H386.763C386.891 883.56 388.341 879.848 391.115 877.288C393.931 874.685 397.493 873.384 401.803 873.384C406.453 873.384 410.08 874.664 412.683 877.224C415.328 879.784 416.651 883.197 416.651 887.464C416.651 890.536 415.861 893.501 414.283 896.36C412.747 899.176 410.891 901.715 408.715 903.976C406.581 906.195 403.851 908.776 400.523 911.72L397.643 914.28H417.931V920.36H386.827V915.048L391.435 911.08ZM424.34 897.064C424.34 889.683 425.577 883.923 428.052 879.784C430.569 875.603 434.879 873.512 440.98 873.512C447.081 873.512 451.369 875.603 453.844 879.784C456.361 883.923 457.62 889.683 457.62 897.064C457.62 904.531 456.361 910.376 453.844 914.6C451.369 918.781 447.081 920.872 440.98 920.872C434.879 920.872 430.569 918.781 428.052 914.6C425.577 910.376 424.34 904.531 424.34 897.064ZM450.452 897.064C450.452 893.608 450.217 890.685 449.748 888.296C449.321 885.907 448.425 883.965 447.06 882.472C445.695 880.936 443.668 880.168 440.98 880.168C438.292 880.168 436.265 880.936 434.9 882.472C433.535 883.965 432.617 885.907 432.148 888.296C431.721 890.685 431.508 893.608 431.508 897.064C431.508 900.648 431.721 903.656 432.148 906.088C432.575 908.52 433.471 910.483 434.836 911.976C436.244 913.469 438.292 914.216 440.98 914.216C443.668 914.216 445.695 913.469 447.06 911.976C448.468 910.483 449.385 908.52 449.812 906.088C450.239 903.656 450.452 900.648 450.452 897.064ZM469.372 911.08C473.468 907.539 476.689 904.637 479.036 902.376C481.425 900.072 483.409 897.683 484.988 895.208C486.567 892.733 487.356 890.259 487.356 887.784C487.356 885.224 486.737 883.219 485.5 881.768C484.305 880.317 482.407 879.592 479.804 879.592C477.287 879.592 475.324 880.403 473.916 882.024C472.551 883.603 471.825 885.736 471.74 888.424H464.7C464.828 883.56 466.279 879.848 469.052 877.288C471.868 874.685 475.431 873.384 479.74 873.384C484.391 873.384 488.017 874.664 490.62 877.224C493.265 879.784 494.588 883.197 494.588 887.464C494.588 890.536 493.799 893.501 492.22 896.36C490.684 899.176 488.828 901.715 486.652 903.976C484.519 906.195 481.788 908.776 478.46 911.72L475.58 914.28H495.868V920.36H464.764V915.048L469.372 911.08ZM501.382 911.272V905.768L522.886 874.92H531.718V904.936H537.67V911.272H531.718V921H524.55V911.272H501.382ZM524.87 882.344L509.766 904.936H524.87V882.344Z" fill="#222222"/>
<path d="M83.16 991.28C81.2933 991.28 79.6133 990.96 78.12 990.32C76.6267 989.653 75.4533 988.72 74.6 987.52C73.7467 986.32 73.32 984.92 73.32 983.32H78.2C78.3067 984.52 78.7733 985.507 79.6 986.28C80.4533 987.053 81.64 987.44 83.16 987.44C84.7333 987.44 85.96 987.067 86.84 986.32C87.72 985.547 88.16 984.56 88.16 983.36C88.16 982.427 87.88 981.667 87.32 981.08C86.7867 980.493 86.1067 980.04 85.28 979.72C84.48 979.4 83.36 979.053 81.92 978.68C80.1067 978.2 78.6267 977.72 77.48 977.24C76.36 976.733 75.4 975.96 74.6 974.92C73.8 973.88 73.4 972.493 73.4 970.76C73.4 969.16 73.8 967.76 74.6 966.56C75.4 965.36 76.52 964.44 77.96 963.8C79.4 963.16 81.0667 962.84 82.96 962.84C85.6533 962.84 87.8533 963.52 89.56 964.88C91.2933 966.213 92.2533 968.053 92.44 970.4H87.4C87.32 969.387 86.84 968.52 85.96 967.8C85.08 967.08 83.92 966.72 82.48 966.72C81.1733 966.72 80.1067 967.053 79.28 967.72C78.4533 968.387 78.04 969.347 78.04 970.6C78.04 971.453 78.2933 972.16 78.8 972.72C79.3333 973.253 80 973.68 80.8 974C81.6 974.32 82.6933 974.667 84.08 975.04C85.92 975.547 87.4133 976.053 88.56 976.56C89.7333 977.067 90.72 977.853 91.52 978.92C92.3467 979.96 92.76 981.36 92.76 983.12C92.76 984.533 92.3733 985.867 91.6 987.12C90.8533 988.373 89.7467 989.387 88.28 990.16C86.84 990.907 85.1333 991.28 83.16 991.28ZM109.541 968.6C111.221 968.6 112.714 968.96 114.021 969.68C115.354 970.4 116.394 971.467 117.141 972.88C117.914 974.293 118.301 976 118.301 978V991H113.781V978.68C113.781 976.707 113.287 975.2 112.301 974.16C111.314 973.093 109.967 972.56 108.261 972.56C106.554 972.56 105.194 973.093 104.181 974.16C103.194 975.2 102.701 976.707 102.701 978.68V991H98.1406V961.4H102.701V971.52C103.474 970.587 104.447 969.867 105.621 969.36C106.821 968.853 108.127 968.6 109.541 968.6ZM126.437 966.04C125.611 966.04 124.917 965.76 124.357 965.2C123.797 964.64 123.517 963.947 123.517 963.12C123.517 962.293 123.797 961.6 124.357 961.04C124.917 960.48 125.611 960.2 126.437 960.2C127.237 960.2 127.917 960.48 128.477 961.04C129.037 961.6 129.317 962.293 129.317 963.12C129.317 963.947 129.037 964.64 128.477 965.2C127.917 965.76 127.237 966.04 126.437 966.04ZM128.677 968.96V991H124.117V968.96H128.677ZM139.224 972.24C139.997 971.173 141.051 970.307 142.384 969.64C143.744 968.947 145.251 968.6 146.904 968.6C148.851 968.6 150.611 969.067 152.184 970C153.757 970.933 154.997 972.267 155.904 974C156.811 975.707 157.264 977.667 157.264 979.88C157.264 982.093 156.811 984.08 155.904 985.84C154.997 987.573 153.744 988.933 152.144 989.92C150.571 990.88 148.824 991.36 146.904 991.36C145.197 991.36 143.677 991.027 142.344 990.36C141.037 989.693 139.997 988.84 139.224 987.8V991H134.664V961.4H139.224V972.24ZM152.624 979.88C152.624 978.36 152.304 977.053 151.664 975.96C151.051 974.84 150.224 974 149.184 973.44C148.171 972.853 147.077 972.56 145.904 972.56C144.757 972.56 143.664 972.853 142.624 973.44C141.611 974.027 140.784 974.88 140.144 976C139.531 977.12 139.224 978.44 139.224 979.96C139.224 981.48 139.531 982.813 140.144 983.96C140.784 985.08 141.611 985.933 142.624 986.52C143.664 987.107 144.757 987.4 145.904 987.4C147.077 987.4 148.171 987.107 149.184 986.52C150.224 985.907 151.051 985.027 151.664 983.88C152.304 982.733 152.624 981.4 152.624 979.88ZM181.733 968.96V991H177.173V988.4C176.453 989.307 175.507 990.027 174.333 990.56C173.187 991.067 171.96 991.32 170.653 991.32C168.92 991.32 167.36 990.96 165.973 990.24C164.613 989.52 163.533 988.453 162.733 987.04C161.96 985.627 161.573 983.92 161.573 981.92V968.96H166.093V981.24C166.093 983.213 166.587 984.733 167.573 985.8C168.56 986.84 169.907 987.36 171.613 987.36C173.32 987.36 174.667 986.84 175.653 985.8C176.667 984.733 177.173 983.213 177.173 981.24V968.96H181.733ZM207.59 968.96L194.07 1001.36H189.35L193.83 990.64L185.15 968.96H190.23L196.43 985.76L202.87 968.96H207.59ZM209.511 979.88C209.511 977.667 209.965 975.707 210.871 974C211.805 972.293 213.058 970.973 214.631 970.04C216.231 969.08 217.991 968.6 219.911 968.6C221.645 968.6 223.151 968.947 224.431 969.64C225.738 970.307 226.778 971.147 227.551 972.16V968.96H232.151V991H227.551V987.72C226.778 988.76 225.725 989.627 224.391 990.32C223.058 991.013 221.538 991.36 219.831 991.36C217.938 991.36 216.205 990.88 214.631 989.92C213.058 988.933 211.805 987.573 210.871 985.84C209.965 984.08 209.511 982.093 209.511 979.88ZM227.551 979.96C227.551 978.44 227.231 977.12 226.591 976C225.978 974.88 225.165 974.027 224.151 973.44C223.138 972.853 222.045 972.56 220.871 972.56C219.698 972.56 218.605 972.853 217.591 973.44C216.578 974 215.751 974.84 215.111 975.96C214.498 977.053 214.191 978.36 214.191 979.88C214.191 981.4 214.498 982.733 215.111 983.88C215.751 985.027 216.578 985.907 217.591 986.52C218.631 987.107 219.725 987.4 220.871 987.4C222.045 987.4 223.138 987.107 224.151 986.52C225.165 985.933 225.978 985.08 226.591 983.96C227.231 982.813 227.551 981.48 227.551 979.96ZM243.141 985.52L238.301 996.56H235.341L238.181 985.52H243.141ZM275.476 963.2V966.92H268.076V991H263.516V966.92H256.076V963.2H275.476ZM289.654 991.36C287.574 991.36 285.694 990.893 284.014 989.96C282.334 989 281.014 987.667 280.054 985.96C279.094 984.227 278.614 982.227 278.614 979.96C278.614 977.72 279.107 975.733 280.094 974C281.08 972.267 282.427 970.933 284.134 970C285.84 969.067 287.747 968.6 289.854 968.6C291.96 968.6 293.867 969.067 295.574 970C297.28 970.933 298.627 972.267 299.614 974C300.6 975.733 301.094 977.72 301.094 979.96C301.094 982.2 300.587 984.187 299.574 985.92C298.56 987.653 297.174 989 295.414 989.96C293.68 990.893 291.76 991.36 289.654 991.36ZM289.654 987.4C290.827 987.4 291.92 987.12 292.934 986.56C293.974 986 294.814 985.16 295.454 984.04C296.094 982.92 296.414 981.56 296.414 979.96C296.414 978.36 296.107 977.013 295.494 975.92C294.88 974.8 294.067 973.96 293.054 973.4C292.04 972.84 290.947 972.56 289.774 972.56C288.6 972.56 287.507 972.84 286.494 973.4C285.507 973.96 284.72 974.8 284.134 975.92C283.547 977.013 283.254 978.36 283.254 979.96C283.254 982.333 283.854 984.173 285.054 985.48C286.28 986.76 287.814 987.4 289.654 987.4ZM314.322 980L324.482 991H318.322L310.162 981.52V991H305.602V961.4H310.162V978.6L318.162 968.96H324.482L314.322 980ZM347.59 968.96L334.07 1001.36H329.35L333.83 990.64L325.15 968.96H330.23L336.43 985.76L342.87 968.96H347.59ZM360.591 991.36C358.511 991.36 356.631 990.893 354.951 989.96C353.271 989 351.951 987.667 350.991 985.96C350.031 984.227 349.551 982.227 349.551 979.96C349.551 977.72 350.045 975.733 351.031 974C352.018 972.267 353.365 970.933 355.071 970C356.778 969.067 358.685 968.6 360.791 968.6C362.898 968.6 364.805 969.067 366.511 970C368.218 970.933 369.565 972.267 370.551 974C371.538 975.733 372.031 977.72 372.031 979.96C372.031 982.2 371.525 984.187 370.511 985.92C369.498 987.653 368.111 989 366.351 989.96C364.618 990.893 362.698 991.36 360.591 991.36ZM360.591 987.4C361.765 987.4 362.858 987.12 363.871 986.56C364.911 986 365.751 985.16 366.391 984.04C367.031 982.92 367.351 981.56 367.351 979.96C367.351 978.36 367.045 977.013 366.431 975.92C365.818 974.8 365.005 973.96 363.991 973.4C362.978 972.84 361.885 972.56 360.711 972.56C359.538 972.56 358.445 972.84 357.431 973.4C356.445 973.96 355.658 974.8 355.071 975.92C354.485 977.013 354.191 978.36 354.191 979.96C354.191 982.333 354.791 984.173 355.991 985.48C357.218 986.76 358.751 987.4 360.591 987.4Z" fill="#222222"/>
</g>
<defs>
<clipPath id="clip0_127_1491">
<rect width="860" height="1080" fill="white"/>
</clipPath>
</defs>
</svg>
