<svg width="290" height="163" viewBox="0 0 290 163" fill="none" xmlns="http://www.w3.org/2000/svg">
<path d="M259.925 87.1117C259.925 76.6455 266.241 70.5703 275.263 70.5703C283.805 70.5703 290 75.8034 290 85.0065C290 86.3298 289.88 87.7734 289.639 88.8561H267.624V90.6005C267.624 94.9915 270.812 97.8787 275.384 97.8787C279.173 97.8787 281.94 96.014 282.602 93.1268H290C288.917 99.5028 283.083 103.713 275.444 103.713C266 103.713 259.925 97.217 259.925 87.1117ZM267.624 83.8636H282.361V82.841C282.361 79.0515 279.474 76.4049 275.203 76.4049C270.812 76.4049 267.624 79.1117 267.624 83.0816V83.8636Z" fill="#282828"/>
<path d="M254.488 70.9915C255.27 70.9915 256.172 71.0516 256.653 71.1719V78.2095C255.992 78.1494 255.21 78.0892 254.548 78.0892C248.834 78.0892 244.383 81.3374 244.383 88.3148V103.112H236.744V77.4276H231.089V71.1719H243.42L244.383 77.7885H245.766C247.029 73.2772 250.458 70.9915 254.488 70.9915Z" fill="#282828"/>
<path d="M217.6 66.7809V58.6005H225.179V66.7809H217.6ZM217.6 103.112V71.1719H225.179V103.112H217.6Z" fill="#282828"/>
<path d="M202.725 96.9765H211.026V103.112H201.342C196.71 103.112 195.146 100.646 195.146 97.0367V58.6005H202.725V96.9765Z" fill="#282828"/>
<path d="M178.288 66.7809V58.6005H185.867V66.7809H178.288ZM178.288 103.112V71.1719H185.867V103.112H178.288Z" fill="#282828"/>
<path d="M151.409 93.1268C151.409 96.3749 153.875 98.1794 157.785 98.1794C161.334 98.1794 163.499 96.6757 163.499 94.0892C163.499 91.3223 161.274 90.7809 159.83 90.5403L153.755 89.4576C147.379 88.3749 144.672 85.0065 144.672 80.6155C144.672 74.4801 149.665 70.5703 157.424 70.5703C165.965 70.5703 170.356 74.4199 170.296 80.6756H163.259C163.199 77.4275 160.913 76.1042 157.665 76.1042C154.116 76.1042 152.371 77.6079 152.371 79.8937C152.371 82.7809 155.138 83.2621 156.823 83.5628L162.657 84.5253C168.913 85.5478 171.379 89.0365 171.379 93.3674C171.379 99.7434 166.026 103.713 157.785 103.713C149.424 103.713 144.131 99.6832 144.191 93.1268H151.409Z" fill="#282828"/>
<path d="M108.636 87.1117C108.636 76.6455 114.952 70.5703 123.974 70.5703C132.516 70.5703 138.711 75.8034 138.711 85.0065C138.711 86.3298 138.591 87.7734 138.35 88.8561H116.335V90.6005C116.335 94.9915 119.523 97.8787 124.094 97.8787C127.884 97.8787 130.651 96.014 131.313 93.1268H138.711C137.628 99.5028 131.794 103.713 124.155 103.713C114.711 103.713 108.636 97.217 108.636 87.1117ZM116.335 83.8636H131.072V82.841C131.072 79.0515 128.185 76.4049 123.914 76.4049C119.523 76.4049 116.335 79.1117 116.335 83.0816V83.8636Z" fill="#282828"/>
<path d="M68.958 103.112V59.2621H89.8303C99.1536 59.2621 103.665 64.4952 103.665 72.4351C103.665 79.1118 100.176 83.3223 94.101 84.5855V85.9689C97.5295 86.6908 98.7927 88.6156 100.116 91.9239L104.507 103.112H95.6649L91.0333 91.0818C89.5897 87.3524 87.9656 86.7509 84.4769 86.7509H77.0182V103.112H68.958ZM77.0182 80.7358H88.6874C92.7776 80.7358 95.1235 78.39 95.1235 75.202V71.7133C95.1235 68.405 92.6573 66.4802 89.0483 66.4802H77.0182V80.7358Z" fill="#282828"/>
<path fill-rule="evenodd" clip-rule="evenodd" d="M20.623 81.8013C28.4535 81.8013 34.8013 75.4535 34.8013 67.623C34.8013 59.7925 28.4535 53.4447 20.623 53.4447C12.7925 53.4447 6.44469 59.7925 6.44469 67.623C6.44469 75.4535 12.7925 81.8013 20.623 81.8013ZM20.623 88.246C32.0128 88.246 41.246 79.0128 41.246 67.623C41.246 56.2332 32.0128 47 20.623 47C9.23324 47 0 56.2332 0 67.623C0 79.0128 9.23324 88.246 20.623 88.246Z" fill="#EB5A23"/>
<path d="M0.947662 99.8965C0.533989 100.169 0 99.863 0 99.3675V93.14C0 92.9093 0.122942 92.6953 0.325431 92.5847C2.39223 91.4563 4.58184 90.8239 6.87434 90.8239C10.0213 90.8239 12.9744 92.0155 15.6821 94.0463C17.5573 95.4527 19.1871 95.9797 20.623 95.9797C22.0589 95.9797 23.6887 95.4527 25.564 94.0463C28.2716 92.0155 31.2247 90.8239 34.3717 90.8239C36.6642 90.8239 38.8538 91.4563 40.9206 92.5847C41.1231 92.6953 41.246 92.9093 41.246 93.14V99.3675C41.246 99.863 40.712 100.169 40.2984 99.8965C39.9663 99.6775 39.6377 99.4458 39.3126 99.202C37.4374 97.7956 35.8076 97.2686 34.3717 97.2686C32.9358 97.2686 31.306 97.7956 29.4308 99.202C26.7231 101.233 23.77 102.424 20.623 102.424C17.476 102.424 14.523 101.233 11.8153 99.202C9.94006 97.7956 8.31025 97.2686 6.87434 97.2686C5.43842 97.2686 3.80862 97.7956 1.93341 99.202C1.60833 99.4458 1.27972 99.6775 0.947662 99.8965Z" fill="#EB5A23"/>
<path d="M0.947662 112.786C0.533989 113.059 0 112.752 0 112.257V106.029C0 105.799 0.122942 105.585 0.325431 105.474C2.39223 104.346 4.58184 103.713 6.87434 103.713C10.0213 103.713 12.9744 104.905 15.6821 106.936C17.5573 108.342 19.1871 108.869 20.623 108.869C22.0589 108.869 23.6887 108.342 25.564 106.936C28.2716 104.905 31.2247 103.713 34.3717 103.713C36.6642 103.713 38.8538 104.346 40.9206 105.474C41.1231 105.585 41.246 105.799 41.246 106.029V112.257C41.246 112.752 40.712 113.059 40.2984 112.786C39.9663 112.567 39.6377 112.335 39.3126 112.091C37.4374 110.685 35.8076 110.158 34.3717 110.158C32.9358 110.158 31.306 110.685 29.4308 112.091C26.7231 114.122 23.77 115.314 20.623 115.314C17.476 115.314 14.523 114.122 11.8153 112.091C9.94006 110.685 8.31025 110.158 6.87434 110.158C5.43842 110.158 3.80862 110.685 1.93341 112.091C1.60833 112.335 1.27972 112.567 0.947662 112.786Z" fill="#EB5A23"/>
</svg>
