<?xml version="1.0" encoding="utf-8"?>
<!-- Generator: Adobe Illustrator 28.3.0, SVG Export Plug-In . SVG Version: 6.00 Build 0)  -->
<svg version="1.1" id="Artwork" xmlns="http://www.w3.org/2000/svg" xmlns:xlink="http://www.w3.org/1999/xlink" x="0px" y="0px"
	 viewBox="0 0 164 92" style="enable-background:new 0 0 164 92;" xml:space="preserve">
<style type="text/css">
	.st0{fill:none;}
	.st1{fill:#0C00C5;}
</style>
<rect y="23.4" class="st0" width="164" height="45.19"/>
<g>
	<path class="st1" d="M117.21,40.65c-4.81,0-8.63,3.56-8.63,8.63c0,5.06,3.81,8.63,8.63,8.63c2.17,0,4.12-0.73,5.63-1.98l0.39,1.79
		h2.61c0,0,0-3.37,0-8.44S122.24,40.65,117.21,40.65z M117.21,54.72c-2.61,0-5.06-2.25-5.06-5.44s2.46-5.44,5.06-5.44
		c2.61,0,5.02,2.25,5.02,5.44C122.23,52.47,119.82,54.72,117.21,54.72z"/>
	<path class="st1" d="M19.93,40.65c-4.72,0-8.63,3.56-8.63,8.63c0,5.06,3.9,8.63,8.83,8.63c4.31,0,6.78-2.25,8.01-5.06h-3.9
		c-0.62,0.75-1.85,1.87-4.11,1.87c-2.67,0-4.82-1.87-5.03-3.94h13.24c0,0,0.21-0.75,0.21-1.5C28.54,44.21,24.65,40.65,19.93,40.65z
		 M15.1,47.96c0.41-2.44,2.36-4.13,4.82-4.13c2.88,0,4.72,1.69,5.13,4.13H15.1z"/>
	<path class="st1" d="M58.38,40.65c-4.72,0-8.63,3.56-8.63,8.63c0,5.06,3.9,8.63,8.83,8.63c4.31,0,6.78-2.25,8.01-5.06h-3.9
		c-0.62,0.75-1.85,1.87-4.11,1.87c-2.67,0-4.82-1.87-5.03-3.94h13.24c0,0,0.21-0.75,0.21-1.5C67,44.21,63.1,40.65,58.38,40.65z
		 M53.54,47.96c0.41-2.44,2.36-4.13,4.82-4.13c2.88,0,4.72,1.69,5.13,4.13H53.54z"/>
	<path class="st1" d="M78.94,43.84c2.29,0,3.74,1.31,4.37,3.19h3.95c-0.83-3.56-3.95-6.38-8.31-6.38c-4.99,0-8.94,3.56-8.94,8.63
		c0,5.06,3.95,8.63,8.94,8.63c4.37,0,7.48-2.81,8.31-6.38h-3.95c-0.62,1.88-2.08,3.19-4.37,3.19c-2.7,0-5.25-2.25-5.25-5.44
		C73.7,46.09,76.24,43.84,78.94,43.84z"/>
	<g>
		<path class="st1" d="M131.6,34.09c-1.29,0-2.37,1.08-2.37,2.37s1.08,2.37,2.37,2.37s2.37-1.08,2.37-2.37
			C133.98,35.17,132.9,34.09,131.6,34.09z"/>
		<rect x="129.91" y="40.84" class="st1" width="3.38" height="16.88"/>
	</g>
	<path class="st1" d="M39.32,40.66c-4.52,0-7.63,1.8-7.63,1.8v15.26h3.38V44.79c0,0,1.94-0.8,4-0.8c2.73,0,4.16,1.67,4.16,4.05v9.68
		h3.38v-9.74C46.6,43.47,43.71,40.66,39.32,40.66z"/>
	<path class="st1" d="M145.41,40.66c-4.52,0-7.63,1.8-7.63,1.8v15.26h3.38V44.79c0,0,1.94-0.8,4-0.8c2.73,0,4.16,1.67,4.16,4.05
		v9.68h3.38v-9.74C152.71,43.47,149.81,40.66,145.41,40.66z"/>
	<path class="st1" d="M98.16,40.66c-1.63,0-3.07,0.23-4.25,0.53v-6.07h-3.38v22.6h3.38V44.79c0,0,1.94-0.8,4-0.8
		c2.73,0,4.16,1.67,4.16,4.05v9.68h3.38v-9.74C105.45,43.47,102.54,40.66,98.16,40.66z"/>
</g>
</svg>
