<svg width="164" height="92" viewBox="0 0 164 92" fill="none" xmlns="http://www.w3.org/2000/svg">
<path fill-rule="evenodd" clip-rule="evenodd" d="M74.578 35.2662C76.9853 35.2662 78.9337 33.3179 78.9337 30.9105C78.9337 28.4497 77.0334 26.4 74.578 26.4C72.2186 26.4 70.2223 28.1935 70.2223 30.5529C70.2223 33.0617 72.0692 35.2662 74.578 35.2662ZM78.0102 37.6202H71.1937V64.8327H78.0102V37.6202ZM46.7034 65.5478C50.1356 65.5478 52.6978 64.3201 55.1052 61.9608V64.8326H61.9217V37.6201H55.1052V40.5933C52.6444 38.1325 49.826 36.9048 46.5486 36.9048C39.4759 36.9048 33.7377 42.7498 33.7377 51.253C33.7377 59.6014 39.7855 65.5478 46.7034 65.5478ZM47.9311 59.2972C43.6768 59.2972 40.6022 55.8649 40.6022 51.1996C40.6022 46.7425 43.4206 43.1555 47.9311 43.1608C52.2388 43.1608 55.4148 46.3849 55.4148 51.1516C55.4148 56.1212 52.132 59.2972 47.9311 59.2972ZM86.5668 27.1153H93.3832V64.8327H86.5668V27.1153ZM113.87 65.5478C122.17 65.5478 128.266 59.089 128.266 51.1996C128.266 43.1555 121.754 36.9048 113.822 36.9048C106.392 36.9048 99.73 43.0007 99.73 51.253C99.73 59.2438 105.981 65.5478 113.87 65.5478ZM113.918 59.089C109.509 59.089 106.589 55.8116 106.589 51.1996C106.589 46.6891 109.664 43.3583 113.918 43.3583C118.375 43.3583 121.396 46.6358 121.396 51.2477C121.396 56.0144 118.119 59.089 113.918 59.089ZM140.645 41.0524C141.926 38.234 144.13 36.8996 146.383 36.8996C148.128 36.8996 149.701 37.6664 150.688 38.1473C150.8 38.2018 150.904 38.2525 151 38.2981L148.401 43.5506C147.808 43.241 145.972 42.894 145.257 42.894C143.308 42.894 141.771 45.1466 141.616 49.1447C141.563 50.6339 141.563 52.3207 141.563 53.81V64.8327H134.746V37.6202H140.639V41.0524H140.645ZM26.9052 59.9858C28.1008 59.9858 29.2058 59.4627 29.7129 58.9716L31.2021 63.701C30.0705 64.7739 27.6791 65.5532 24.7487 65.5532C19.9072 65.5532 17.3344 62.9217 17.3344 58.1389V43.764H13V37.6255H17.3344V28.0654H24.1508V37.6202H24.3323H31.1915L28.1649 43.7587H24.3376H24.1562V56.5803C24.1562 58.55 25.1116 59.9858 26.9052 59.9858Z" fill="#535AE8"/>
</svg>
