<?xml version="1.0" encoding="UTF-8"?><svg id="_イヤー_2" xmlns="http://www.w3.org/2000/svg" viewBox="0 0 960.4 354"><defs><style>.cls-1{fill:#00a9e0;}</style></defs><g id="_イヤー_1-2"><g><path class="cls-1" d="M508.3,68.25c-55.81,0-101.06,45.25-101.06,101.06h0v184.69h50.21v-97.43c48.23,28.03,110.04,11.66,138.08-36.56,28.03-48.23,11.66-110.04-36.56-138.08-15.39-8.94-32.86-13.66-50.66-13.68m0,151.91c-28.08-.01-50.84-22.79-50.83-50.87,.01-28.08,22.79-50.84,50.87-50.83,28.08,.01,50.84,22.78,50.83,50.86,0,28.08-22.76,50.84-50.84,50.84h-.03Z"/><path class="cls-1" d="M290.4,68.25c-55.82-.08-101.14,45.11-101.21,100.93-.08,55.82,45.1,101.14,100.92,101.22,17.98,.03,35.64-4.75,51.16-13.82v14.08h50.19v-101.33c0-55.81-45.24-101.06-101.05-101.07h0Zm0,151.91c-28.08,0-50.85-22.78-50.84-50.86,0-28.08,22.78-50.85,50.86-50.84,28.08,0,50.85,22.78,50.84,50.86s-22.78,50.85-50.86,50.84Z"/><path class="cls-1" d="M723.35,68.25c-55.82,0-101.06,45.25-101.06,101.07v184.68h50.21v-97.43c48.23,28.03,110.04,11.66,138.08-36.56,28.03-48.23,11.66-110.04-36.56-138.08-15.39-8.94-32.86-13.66-50.66-13.68m0,151.91c-28.08,0-50.85-22.78-50.84-50.86,0-28.08,22.78-50.85,50.86-50.84s50.85,22.78,50.84,50.86c0,28.08-22.78,50.85-50.86,50.84"/><rect class="cls-1" x="839.37" width="50.2" height="270.65"/><path class="cls-1" d="M932.92,55c15.18,0,27.48-12.3,27.48-27.48S948.1,.04,932.92,.04s-27.48,12.3-27.48,27.48c0,15.17,12.29,27.47,27.46,27.48h.02Z"/><rect class="cls-1" x="907.89" y="68.52" width="50.19" height="202.13"/><path class="cls-1" d="M151.64,68.23l-48.94,130.66L53.63,68.25H0l75.92,202.13-8.71,23.26c-2.16,5.76-7.66,9.58-13.81,9.58h-13.6v50.78h23.35c21.27,0,40.3-13.2,47.76-33.12L205.47,68.23h-53.83Z"/></g></g></svg>