<svg width="164" height="35" viewBox="0 0 164 35" fill="none" xmlns="http://www.w3.org/2000/svg">
<path d="M10.3853 11.006H10.8742C11.9963 11.006 12.9079 10.0747 12.9079 8.92824C12.9079 7.78181 11.9963 6.85044 10.8742 6.85044H10.3853C9.26804 6.85044 8.3597 5.92238 8.3597 4.78257V2.33753C8.3597 1.04883 7.33477 0 6.07345 0C4.81212 0 3.7872 1.04883 3.7872 2.33753V5.24909C3.7872 6.13248 3.08449 6.85044 2.21986 6.85044C0.99578 6.85044 0 7.78181 0 8.92824C0 10.0747 0.911582 11.006 2.03366 11.006C3.00029 11.006 3.7872 11.724 3.7872 12.6074V24.0717C3.7872 24.4786 3.7791 24.8955 3.77263 25.3173C3.72081 28.4158 3.66414 31.9263 6.33251 33.7692C7.28943 34.4292 8.40827 34.7766 9.56435 34.7766H10.6217C11.883 34.7766 12.9079 33.7294 12.9079 32.4407C12.9079 31.1305 12.019 30.1049 10.884 30.1049L10.5294 30.1082C9.78779 30.1165 9.08831 30.128 8.71429 29.7443C8.32083 29.3423 8.33703 28.6028 8.35322 27.8186L8.3597 13.0739C8.3597 11.9341 9.26804 11.006 10.3853 11.006Z" fill="#150201"/>
<path d="M41.2667 6.85052C39.9844 6.85052 38.9805 7.99529 38.9805 9.45935C38.9805 9.68102 38.8493 9.79352 38.7392 9.84811C38.5854 9.92586 38.3393 9.95068 38.1207 9.77532C36.9485 8.84726 35.6547 8.12599 34.2768 7.6297C31.3138 6.56599 28.0415 6.58749 25.0655 7.70249C22.1348 8.79928 19.63 10.9135 18.0108 13.653C15.3586 18.1411 15.3667 23.7128 18.0319 28.1943C20.5513 32.4309 24.9505 34.9603 29.7966 34.9603C32.8245 34.9603 35.7033 33.9496 38.1207 32.0355C38.3506 31.8552 38.6324 31.8618 38.7975 31.9462C38.9594 32.0273 38.9805 32.1464 38.9805 32.2423C38.9805 33.6402 40.0054 34.7767 41.2667 34.7767C42.5281 34.7767 43.553 33.7295 43.553 32.4408V9.18805C43.553 7.89935 42.5281 6.85052 41.2667 6.85052ZM36.5566 27.2546C35.8685 28.0222 35.0654 28.6608 34.1732 29.1554C31.4336 30.6774 28.1597 30.6757 25.4201 29.1571C23.7993 28.2555 22.4926 26.8956 21.6426 25.2264C20.2372 22.4621 20.2663 19.175 21.7219 16.4355C23.333 13.4065 26.4272 11.5239 29.7966 11.5239C32.5476 11.5239 35.1301 12.7696 36.8821 14.9384C39.7836 18.5299 39.6443 23.8253 36.5566 27.2546Z" fill="#150201"/>
<path d="M137.549 7.69086C135.013 6.59571 132.105 6.57585 129.569 7.62302C126.849 8.74629 123.731 8.74629 121.011 7.62302C120.711 7.49895 120.402 7.38812 120.086 7.29217C118.14 6.69993 116.087 6.69993 114.153 7.29217C113.193 7.58664 112.28 8.02171 111.437 8.58748C111.37 8.63049 111.299 8.63711 111.255 8.63711H111.213C111.213 7.65115 110.429 6.85047 109.466 6.85047H108.927C107.666 6.85047 106.641 7.8993 106.641 9.18799V32.4408C106.641 33.7295 107.666 34.7767 108.927 34.7767C110.188 34.7767 111.213 33.7295 111.213 32.4408V22.3479C111.213 21.84 111.202 21.3239 111.19 20.8045C111.131 18.2254 111.071 15.5603 112.56 13.7158C114.309 11.5503 117.52 10.9184 119.918 12.2517C123.19 14.0665 123.107 18.5232 123.026 22.831C123.015 23.4828 123.004 24.1246 123.004 24.75V32.4408C123.004 33.7295 124.029 34.7767 125.29 34.7767C126.551 34.7767 127.576 33.7295 127.576 32.4408L127.58 17.3917C127.66 14.1013 130.248 11.5239 133.472 11.5239C134.454 11.5239 135.426 11.7753 136.281 12.2517C139.553 14.0665 139.471 18.5232 139.39 22.831C139.378 23.4828 139.367 24.1246 139.367 24.75V32.4408C139.367 33.7295 140.392 34.7767 141.653 34.7767C142.915 34.7767 143.941 33.7295 143.941 32.4408V22.3479C143.941 21.8152 143.952 21.2776 143.962 20.7383C144.014 18.098 144.067 15.3684 142.908 12.9085C141.801 10.5594 139.896 8.7066 137.549 7.69086Z" fill="#150201"/>
<path d="M60.44 11.5238C62.2809 11.5238 64.0572 12.078 65.5759 13.1269C66.6089 13.8415 68.0856 14.1161 69.0474 13.1285C69.5477 12.6206 69.8294 11.9407 69.8003 11.3121C69.7776 10.8175 69.5623 10.3724 69.1915 10.0598C67.9868 9.04405 66.6332 8.25164 65.1711 7.70241C62.119 6.55929 58.7593 6.5626 55.7104 7.70241C52.7781 8.80087 50.2733 10.9134 48.6541 13.6529C46.0036 18.141 46.0117 23.7127 48.6752 28.1942C51.1946 32.4308 55.5938 34.9603 60.44 34.9603C63.6297 34.9603 66.7385 33.8221 69.1915 31.7526C69.5607 31.4399 69.7776 30.9966 69.8003 30.5019C69.8294 29.8733 69.5493 29.1934 69.049 28.6822C68.0824 27.6946 66.6057 27.9708 65.5743 28.6855C65.0206 29.0676 64.4263 29.3869 63.8078 29.6367C61.588 30.5284 59.0572 30.4986 56.8665 29.5507C54.8053 28.6607 53.1343 27.0345 52.1628 24.9733C50.8869 22.2652 50.9614 19.0741 52.3669 16.4354C53.9763 13.4064 57.0705 11.5238 60.44 11.5238Z" fill="#150201"/>
<path d="M102.908 6.31972L102.908 6.31935C102.915 6.23541 102.887 6.15366 102.83 6.09539L101.17 4.3995C101.112 4.3405 101.032 4.31082 100.95 4.31938C100.87 4.32721 100.797 4.37164 100.75 4.44156L98.0848 8.50013C98.0128 8.61029 98.0271 8.75869 98.1183 8.853L98.4716 9.21407C98.5236 9.26633 98.592 9.2951 98.6644 9.2951C98.7186 9.2951 98.7713 9.27871 98.8166 9.24757L102.788 6.52419C102.857 6.47758 102.9 6.40293 102.908 6.31972Z" fill="#FABE00"/>
<path d="M103.408 9.98155C103.347 9.9282 103.267 9.90563 103.185 9.91947L99.9568 10.4894C99.8256 10.5125 99.7305 10.6283 99.7305 10.7645V11.2738C99.7305 11.41 99.8256 11.5258 99.9568 11.5489L103.185 12.1188C103.201 12.1215 103.216 12.1226 103.232 12.1226C103.297 12.1226 103.36 12.099 103.407 12.0573C103.469 12.0047 103.505 11.9267 103.505 11.8437V10.1946C103.505 10.1116 103.469 10.034 103.408 9.98155Z" fill="#FABE00"/>
<path d="M97.157 3.70926H95.5427C95.4618 3.70926 95.3856 3.74531 95.3335 3.80849C95.2815 3.87167 95.2597 3.95452 95.2736 4.03591L95.8311 7.33485C95.8543 7.46886 95.9672 7.56609 96.1002 7.56609H96.5992C96.7325 7.56609 96.8458 7.46868 96.8683 7.33466L97.4261 4.03591C97.44 3.95489 97.4179 3.87204 97.3659 3.80831C97.3138 3.74531 97.2375 3.70926 97.157 3.70926Z" fill="#FABE00"/>
<path d="M163.134 22.5448C162.949 22.1627 162.737 21.797 162.502 21.4496C161.448 19.893 159.902 18.7068 158.147 18.1129C157.475 17.8846 156.789 17.8152 156.125 17.749C155.262 17.663 154.446 17.5802 153.827 17.1518C153.523 16.9433 153.262 16.682 153.048 16.3743C152.32 15.3304 152.303 13.9143 153.006 12.8523C153.537 12.0483 154.382 11.5536 155.325 11.4924C155.328 11.4908 155.333 11.4908 155.338 11.4908C155.466 11.5305 155.587 11.5288 155.678 11.4891C156.845 11.5503 157.885 12.3047 158.328 13.4131C158.787 14.5612 159.773 15.3023 160.84 15.3023C161.542 15.3023 162.206 14.9979 162.614 14.4884C162.951 14.0682 163.079 13.5454 162.974 13.0177C162.579 11.0541 161.469 9.34185 159.849 8.19212C157.289 6.37901 153.845 6.35915 151.267 8.13918C150.122 8.92993 149.208 10.0234 148.625 11.2989C147.668 13.3916 147.673 15.7837 148.636 17.8582C149.585 19.9012 151.343 21.4315 153.461 22.0584C154.131 22.2536 154.824 22.3529 155.521 22.3529C156.301 22.3529 157.056 22.5895 157.702 23.0345C158.795 23.7888 159.423 24.9948 159.423 26.3397C159.423 27.6863 158.795 28.8923 157.702 29.6467C156.397 30.5499 154.645 30.5499 153.34 29.6467C152.681 29.1918 152.179 28.5532 151.889 27.8022C151.353 26.4159 150.422 25.6218 149.332 25.6218C148.667 25.6218 148.027 25.9262 147.619 26.4357C147.242 26.9088 147.098 27.4945 147.216 28.085C148.018 32.0917 151.51 35 155.521 35C158.633 35 161.489 33.2646 162.974 30.4689C164.282 28.0106 164.342 25.0477 163.134 22.5448Z" fill="#150201"/>
<path d="M91.4167 7.61166C88.3694 6.47188 85.0114 6.46857 81.9609 7.61166C79.0317 8.70842 76.5266 10.8225 74.9082 13.562C72.2574 18.0499 72.2655 23.6215 74.9293 28.1028C77.4474 32.3393 81.8443 34.8687 86.688 34.8687C92.4379 34.8687 97.6278 31.1632 99.6038 25.6479C100.724 22.5247 100.72 19.0855 99.5973 15.9623C98.1991 12.0798 95.2165 9.03596 91.4167 7.61166ZM93.4445 27.1632C92.7567 27.9308 91.954 28.5693 91.0623 29.0639C88.3241 30.5858 85.0519 30.5842 82.3137 29.0656C80.6921 28.164 79.3877 26.8042 78.5397 25.1351C77.1334 22.3708 77.1626 19.0839 78.619 16.3444C80.2276 13.3155 83.3202 11.433 86.688 11.433C89.4375 11.433 92.0187 12.6786 93.7697 14.8473C96.6698 18.4387 96.5306 23.7339 93.4445 27.1632Z" fill="#231815"/>
</svg>
