<?xml version="1.0" encoding="UTF-8"?>
<svg id="Layer_2" data-name="Layer 2" xmlns="http://www.w3.org/2000/svg" viewBox="0 0 317.48 68.03">
  <defs>
    <style>
      .cls-1, .cls-2, .cls-3, .cls-4, .cls-5, .cls-6, .cls-7 {
        stroke-width: 0px;
      }

      .cls-2 {
        fill: #a50082;
      }

      .cls-3 {
        fill: #00a0eb;
      }

      .cls-4 {
        fill: #e60000;
      }

      .cls-5 {
        fill: #ffc800;
      }

      .cls-6 {
        fill: #f06e00;
      }

      .cls-7 {
        fill: #00aa3c;
      }
    </style>
  </defs>
  <g id="_レイヤー_1" data-name="レイヤー 1">
    <g>
      <g>
        <path class="cls-1" d="M144.6,53.98l-3.1-7.84h-15.45l-2.93,7.84h-10.49l16.75-39.93h9.36l16.58,39.93h-10.71ZM133.88,24.71l-5.08,13.7h10.04l-4.96-13.7Z"/>
        <path class="cls-1" d="M191.47,45.49c-.81,1.97-1.96,3.67-3.47,5.08-1.5,1.41-3.32,2.51-5.44,3.3-2.12.79-4.48,1.18-7.08,1.18s-5-.39-7.11-1.18c-2.11-.79-3.89-1.89-5.36-3.3-1.47-1.41-2.59-3.1-3.38-5.08-.79-1.97-1.18-4.16-1.18-6.57V14.05h9.59v24.08c0,1.09.14,2.12.42,3.1.28.98.71,1.85,1.3,2.62.58.77,1.35,1.38,2.31,1.83.96.45,2.11.68,3.47.68s2.51-.23,3.47-.68c.96-.45,1.74-1.06,2.34-1.83.6-.77,1.03-1.64,1.3-2.62.26-.98.39-2.01.39-3.1V14.05h9.64v24.87c0,2.41-.4,4.6-1.21,6.57Z"/>
        <path class="cls-1" d="M231.4,53.27c-2.59,1.18-5.58,1.78-8.97,1.78-3.08,0-5.93-.51-8.54-1.52-2.61-1.02-4.88-2.45-6.8-4.31s-3.42-4.09-4.51-6.68c-1.09-2.59-1.64-5.45-1.64-8.57s.55-6.09,1.66-8.68c1.11-2.59,2.64-4.8,4.6-6.63,1.95-1.82,4.25-3.22,6.88-4.2,2.63-.98,5.47-1.47,8.52-1.47,2.82,0,5.59.5,8.32,1.49,2.73,1,4.93,2.45,6.63,4.37l-6.54,6.54c-.9-1.24-2.09-2.16-3.55-2.76-1.47-.6-2.97-.9-4.51-.9-1.69,0-3.24.31-4.65.93-1.41.62-2.62,1.48-3.64,2.57-1.02,1.09-1.8,2.38-2.37,3.86-.56,1.49-.85,3.11-.85,4.88s.28,3.46.85,4.96c.56,1.5,1.34,2.79,2.34,3.86,1,1.07,2.19,1.91,3.58,2.51,1.39.6,2.91.9,4.57.9,1.92,0,3.59-.38,5.02-1.13,1.43-.75,2.57-1.73,3.44-2.93l6.71,6.32c-1.77,2.03-3.95,3.64-6.54,4.82Z"/>
        <path class="cls-1" d="M270.51,53.98v-16.69h-15.56v16.69h-9.64V14.05h9.64v15.11h15.56v-15.11h9.64v39.93h-9.64Z"/>
        <path class="cls-1" d="M289.62,53.98V14.05h26.84v8.12h-17.54v7.56h16.58v7.73h-16.58v8.29h18.55v8.23h-27.86Z"/>
        <polygon class="cls-1" points="93.56 32.44 110.76 14.05 98.69 14.05 84.42 30.29 84.25 30.29 84.25 14.05 74.83 14.05 74.83 53.98 84.25 53.98 84.25 35.59 84.37 35.59 98.69 53.98 111.26 53.98 93.56 32.44"/>
      </g>
      <g>
        <g>
          <path class="cls-6" d="M27.17,32.03l-16.77,7.96L1.69,4.81c-.14-.58.58-.96.98-.51l24.5,27.73Z"/>
          <path class="cls-3" d="M.08,45.58l12.79,21.74c.24.41.85.36,1.02-.09l13.28-35.2L.32,44.78c-.3.14-.41.51-.25.8Z"/>
        </g>
        <g>
          <path class="cls-2" d="M30.12,31.34L40.89.38c.11-.3.44-.46.74-.34l16.38,6.3c.4.15.49.68.17.96l-28.05,24.05Z"/>
          <path class="cls-5" d="M30.12,31.34l21.87-18.75,7.83,12.56c.21.34.01.79-.38.86l-29.33,5.33Z"/>
        </g>
        <g>
          <path class="cls-7" d="M30.12,32.71l26.91,5.38c.28.06.48.32.45.6l-1.14,13.4-26.23-19.38Z"/>
          <path class="cls-4" d="M30.12,32.71l13.44,34.95c.13.34.55.47.85.26l16.57-11.47c.32-.22.33-.69.01-.92l-30.88-22.82Z"/>
        </g>
      </g>
    </g>
  </g>
</svg>