<svg width="164" height="92" viewBox="0 0 164 92" fill="none" xmlns="http://www.w3.org/2000/svg">
<g opacity="0.9">
<path d="M51.2206 38.4285C54.2704 38.4285 56.7745 39.9927 57.8308 42.704C57.8999 42.8814 57.7672 43.0737 57.5776 43.0737H54.8189C54.7173 43.0737 54.6266 43.0168 54.5792 42.9274C53.8871 41.649 52.6872 41.0179 51.2016 41.0179C48.6934 41.0179 46.9058 42.8475 46.9058 45.766C46.9058 48.6845 48.6948 50.5142 51.2016 50.5142C52.6886 50.5142 53.8871 49.8831 54.5792 48.5857C54.6266 48.4963 54.7187 48.438 54.8202 48.438H57.5789C57.7685 48.438 57.9013 48.629 57.8322 48.8064C56.7772 51.5367 54.2731 53.0833 51.2219 53.0833C47.09 53.0833 43.9453 50.0618 43.9453 45.766C43.9453 41.4702 47.09 38.4285 51.2219 38.4285H51.2206Z" fill="#333333"/>
<path d="M59.6927 37.7502H62.0289C62.1779 37.7502 62.2997 37.872 62.2997 38.021V52.6907C62.2997 52.8396 62.1779 52.9615 62.0289 52.9615H59.6927C59.5438 52.9615 59.4219 52.8396 59.4219 52.6907V38.021C59.4219 37.872 59.5438 37.7502 59.6927 37.7502Z" fill="#333333"/>
<path d="M69.7995 53.1473C66.5113 53.1473 64.0234 50.845 64.0234 47.2683C64.0234 43.6917 66.5925 41.3894 69.8821 41.3894C73.1717 41.3894 75.7407 43.6713 75.7407 47.2683C75.7407 50.8653 73.1094 53.1473 69.7995 53.1473ZM69.7995 50.6392C71.3203 50.6392 72.7803 49.5286 72.7803 47.2683C72.7803 45.008 71.3623 43.8975 69.8415 43.8975C68.3206 43.8975 66.9433 44.9864 66.9433 47.2683C66.9433 49.5503 68.2583 50.6392 69.8008 50.6392H69.7995Z" fill="#333333"/>
<path d="M87.917 52.9615H85.5605C85.4116 52.9615 85.2897 52.8396 85.2897 52.6906V51.5232C84.5705 52.4888 83.3165 53.1064 81.8985 53.1064C79.2468 53.1064 77.3359 51.3797 77.3359 48.2553V41.8455C77.3359 41.6965 77.4578 41.5746 77.6068 41.5746H79.9429C80.0919 41.5746 80.2138 41.6965 80.2138 41.8455V47.8436C80.2138 49.6733 81.2214 50.6592 82.7423 50.6592C84.2631 50.6592 85.291 49.6719 85.291 47.8436V41.8455C85.291 41.6965 85.4129 41.5746 85.5619 41.5746H87.9184C88.0673 41.5746 88.1892 41.6965 88.1892 41.8455V52.692C88.1892 52.8409 88.0673 52.9628 87.9184 52.9628L87.917 52.9615Z" fill="#333333"/>
<path d="M94.7667 41.3891C96.2672 41.3891 97.7068 42.0879 98.4869 43.1565V38.021C98.4869 37.872 98.6088 37.7502 98.7578 37.7502H101.135C101.284 37.7502 101.405 37.872 101.405 38.021V52.6907C101.405 52.8396 101.284 52.9615 101.135 52.9615H98.7578C98.6088 52.9615 98.4869 52.8396 98.4869 52.6907V51.2754C97.8084 52.3237 96.534 53.1457 94.7464 53.1457C91.8482 53.1457 89.5459 50.7811 89.5459 47.2261C89.5459 43.6711 91.8482 41.3878 94.7667 41.3878V41.3891ZM95.4858 43.9176C93.9446 43.9176 92.4847 45.0687 92.4847 47.2275C92.4847 49.3862 93.9446 50.6186 95.4858 50.6186C97.027 50.6186 98.5072 49.4268 98.5072 47.2681C98.5072 45.1094 97.069 43.9176 95.4858 43.9176Z" fill="#333333"/>
<path d="M110.454 41.3891C113.372 41.3891 115.654 43.6711 115.654 47.2275C115.654 50.7838 113.372 53.1471 110.454 53.1471C108.665 53.1471 107.39 52.325 106.691 51.3377V52.6907C106.691 52.8396 106.569 52.9615 106.42 52.9615H104.084C103.935 52.9615 103.813 52.8396 103.813 52.6907V38.021C103.813 37.872 103.935 37.7502 104.084 37.7502H106.42C106.569 37.7502 106.691 37.872 106.691 38.021V43.2377C107.39 42.1895 108.727 41.3878 110.454 41.3878V41.3891ZM109.692 43.9176C108.151 43.9176 106.691 45.1094 106.691 47.2681C106.691 49.4268 108.151 50.6186 109.692 50.6186C111.234 50.6186 112.714 49.3848 112.714 47.2275C112.714 45.0701 111.254 43.9176 109.692 43.9176Z" fill="#333333"/>
<path d="M121.955 41.3894C123.785 41.3894 125.039 42.2534 125.718 43.1987V41.8458C125.718 41.6968 125.839 41.5749 125.988 41.5749H128.345C128.494 41.5749 128.616 41.6968 128.616 41.8458V52.6923C128.616 52.8412 128.494 52.9631 128.345 52.9631H125.988C125.839 52.9631 125.718 52.8412 125.718 52.6923V51.2987C125.039 52.286 123.744 53.1487 121.935 53.1487C119.057 53.1487 116.755 50.7841 116.755 47.2291C116.755 43.6741 119.057 41.3907 121.955 41.3907V41.3894ZM122.695 43.9178C121.154 43.9178 119.694 45.069 119.694 47.2277C119.694 49.3864 121.154 50.6188 122.695 50.6188C124.236 50.6188 125.716 49.4271 125.716 47.2683C125.716 45.1096 124.278 43.9178 122.695 43.9178Z" fill="#333333"/>
<path d="M135.355 53.1473C132.637 53.1473 130.701 51.6413 130.412 49.6722C130.388 49.5097 130.518 49.3648 130.682 49.3648H133.056C133.182 49.3648 133.287 49.4542 133.32 49.576C133.519 50.3331 134.28 50.8856 135.335 50.8856C136.466 50.8856 137.082 50.3724 137.082 49.7142C137.082 47.6787 130.648 48.9747 130.648 44.8022C130.648 42.9116 132.334 41.3894 135.149 41.3894C137.777 41.3894 139.413 42.7545 139.701 44.8428C139.724 45.0053 139.597 45.1516 139.432 45.1516H137.209C137.081 45.1516 136.972 45.0608 136.945 44.9349C136.776 44.1711 136.103 43.6714 135.067 43.6714C134.031 43.6714 133.443 44.1034 133.443 44.7602C133.443 46.8363 139.754 45.5416 139.835 49.7142C139.835 51.6671 138.129 53.1473 135.354 53.1473H135.355Z" fill="#333333"/>
<path d="M146.706 53.1473C143.396 53.1473 140.992 50.845 140.992 47.2683C140.992 43.6917 143.335 41.3894 146.706 41.3894C150.077 41.3894 152.318 43.6294 152.318 47.0219C152.318 47.3117 152.306 47.6001 152.271 47.89C152.254 48.0281 152.139 48.1324 152.001 48.1324H143.912C144.056 49.8185 145.207 50.7638 146.646 50.7638C147.806 50.7638 148.475 50.2193 148.858 49.5219C148.904 49.4366 148.996 49.3864 149.092 49.3864H151.656C151.843 49.3864 151.977 49.5733 151.912 49.7494C151.193 51.6725 149.36 53.1487 146.709 53.1487L146.706 53.1473ZM143.931 46.1998H149.337C149.297 44.6993 148.104 43.754 146.625 43.754C145.247 43.754 144.159 44.6383 143.932 46.1998H143.931Z" fill="#333333"/>
<path d="M31.1089 43.5704C30.7487 44.5549 30.3112 45.5002 29.7993 46.3995C29.7465 46.4929 29.6937 46.585 29.6395 46.6771C29.1086 47.575 28.5059 48.4268 27.8383 49.2218C27.7326 49.3478 27.6257 49.4723 27.516 49.5956C26.8889 50.3039 26.2104 50.9634 25.4859 51.5715C25.4304 51.6175 25.3491 51.6175 25.2936 51.5715C24.5677 50.9634 23.8865 50.3012 23.2594 49.5929C23.1511 49.471 23.0455 49.3478 22.9412 49.2232C22.2722 48.4268 21.6681 47.5736 21.1373 46.673C21.1061 46.6189 21.0736 46.5647 21.0425 46.5105C21.0059 46.4482 21.0208 46.3683 21.0763 46.3223C21.9187 45.6194 22.6635 44.8028 23.2852 43.8967C23.3502 43.8033 23.491 43.8155 23.5411 43.9171C23.8851 44.6159 24.2819 45.2849 24.7234 45.9187C24.8995 46.1706 25.0823 46.4171 25.2719 46.6568C25.3315 46.7313 25.4466 46.7313 25.5062 46.6568C25.6958 46.4171 25.8786 46.1706 26.0533 45.9201C26.5449 45.2158 26.9783 44.4669 27.348 43.6828C27.5065 43.3483 27.6527 43.0083 27.7855 42.6603C28.1769 41.6486 28.464 40.5842 28.6332 39.4818C28.6454 39.3992 28.724 39.3423 28.8066 39.3572C28.9149 39.3775 29.0233 39.3978 29.1303 39.4195C30.0742 39.6091 30.8949 39.8447 31.8686 40.1941C31.9364 40.2185 31.977 40.2876 31.9634 40.358C31.8835 40.8103 31.6262 42.1362 31.266 43.1099C31.2091 43.2643 31.1604 43.42 31.1048 43.5731L31.1089 43.5704Z" fill="#FF6600"/>
<path d="M38.0175 43.9054C38.1028 43.9826 38.1353 44.1031 38.1028 44.2128C38.0013 44.5473 37.7819 45.2678 37.6397 45.67C37.4081 46.3268 37.1508 46.9715 36.8677 47.6012C36.6497 48.0888 36.4167 48.5695 36.1689 49.0408C35.8398 49.6665 35.4864 50.2787 35.1085 50.8718C34.8214 51.3242 34.5207 51.767 34.2065 52.2004C33.8003 52.7597 33.3723 53.3014 32.924 53.8242C32.5489 54.263 32.1575 54.6896 31.7539 55.1013C31.2921 55.5712 30.8141 56.0235 30.3184 56.4569C29.8336 56.8822 29.3325 57.2885 28.8151 57.6771C28.0026 58.2879 27.1534 58.8499 26.2704 59.3619C26.246 59.3768 26.2217 59.3903 26.1973 59.4052C25.9779 59.5312 25.7571 59.6544 25.5337 59.7749C25.4457 59.8223 25.3387 59.8223 25.2506 59.7749C25.0624 59.6734 24.8755 59.5704 24.69 59.4648C24.69 59.4648 24.6886 59.4648 24.6873 59.4634C24.5816 59.4039 24.476 59.3429 24.3717 59.282C24.3703 59.282 24.369 59.2806 24.3676 59.2793C23.5361 58.7904 22.7344 58.2554 21.9665 57.6785C21.4437 57.2871 20.9372 56.8754 20.447 56.4447C19.9567 56.0168 19.4841 55.5685 19.0277 55.104C18.62 54.6869 18.2259 54.2576 17.8454 53.8133C17.4012 53.2947 16.9773 52.757 16.5751 52.2045C16.2582 51.767 15.9534 51.3187 15.6636 50.861C15.2885 50.2719 14.9391 49.6652 14.6127 49.0449C14.3622 48.5682 14.1265 48.0834 13.9071 47.5904C13.6268 46.9647 13.3708 46.3255 13.1419 45.6741C12.9496 45.131 12.7749 44.5798 12.6205 44.0205C12.4445 43.3907 12.2928 42.7515 12.1655 42.1015C12.0409 41.4717 11.9393 40.8325 11.8635 40.1851C11.743 39.1762 11.6807 38.1496 11.6807 37.1082C11.6807 36.8346 11.6847 36.5611 11.6929 36.2889C11.6956 36.1886 11.7484 36.0979 11.8337 36.0451C12.0531 35.9083 12.2752 35.7756 12.4987 35.6469C12.5244 35.6307 12.5501 35.6158 12.5758 35.6022C13.4494 35.0984 14.354 34.6461 15.2885 34.2479C15.883 33.9933 16.4884 33.7604 17.1059 33.5518C17.7235 33.3419 18.3492 33.155 18.9871 32.9925C19.5477 32.849 20.1179 32.723 20.6921 32.6174C21.3584 32.4941 22.0356 32.3966 22.7195 32.3262C23.2571 32.2707 23.8002 32.2314 24.3487 32.2097C24.6913 32.1962 25.0353 32.1894 25.3806 32.1894C25.726 32.1894 26.0835 32.1962 26.4329 32.2111C26.9801 32.2328 27.5245 32.272 28.0635 32.3276C28.7461 32.398 29.4218 32.4955 30.0882 32.6187C30.6028 32.7135 31.1134 32.8246 31.6171 32.9505C31.7268 32.9776 31.8135 33.0656 31.8365 33.1781C32.0641 34.2493 32.1995 35.3544 32.2374 36.4839C32.2401 36.5868 32.1413 36.6613 32.0437 36.6301C31.0267 36.3119 29.9785 36.0654 28.9059 35.8948C28.8612 35.8866 28.8165 35.8799 28.7718 35.8731C27.6992 35.7092 26.6009 35.6225 25.4836 35.6171C25.4497 35.6171 25.4159 35.6171 25.382 35.6171C25.3549 35.6171 25.3278 35.6171 25.3007 35.6171C24.1835 35.6212 23.0865 35.7065 22.0139 35.869C21.9678 35.8758 21.9231 35.8826 21.8785 35.8907C20.7354 36.0708 19.6195 36.3376 18.5401 36.6857C18.5334 36.6884 18.5266 36.6897 18.5198 36.6924C17.4066 37.0513 16.3313 37.4969 15.302 38.021C15.1978 38.0738 15.1341 38.1849 15.1395 38.3027C15.2018 39.4809 15.3548 40.6334 15.5932 41.7561C15.5946 41.7642 15.5959 41.7697 15.5973 41.7778C15.8383 42.9086 16.1661 44.0069 16.571 45.0674C16.5873 45.1107 16.6049 45.1554 16.6211 45.1987C17.0233 46.2293 17.4987 47.222 18.0431 48.17C18.0743 48.2242 18.1054 48.2784 18.1379 48.3325C18.6932 49.2846 19.3189 50.192 20.0055 51.0479C20.0339 51.0831 20.0624 51.1197 20.0922 51.1549C20.8153 52.0446 21.6049 52.8762 22.454 53.6441C22.4594 53.6495 22.4649 53.6549 22.4703 53.6576C23.3303 54.435 24.2525 55.1446 25.2276 55.7811C25.3265 55.8461 25.4538 55.8461 25.5526 55.7811C26.5237 55.1473 27.4419 54.439 28.3005 53.6657C28.3086 53.659 28.3167 53.6522 28.3249 53.6427C29.1727 52.8789 29.9595 52.0487 30.68 51.163C30.7125 51.1237 30.7436 51.0858 30.7748 51.0465C31.4601 50.1947 32.0817 49.2914 32.6369 48.3434C32.6708 48.2865 32.7046 48.2283 32.7371 48.17C33.2802 47.2247 33.7542 46.2361 34.1537 45.2096C34.1727 45.1622 34.1903 45.1161 34.2093 45.0687C34.5885 44.076 34.8999 43.0508 35.1356 41.9958C35.1586 41.8956 35.2724 41.8469 35.3591 41.901C36.3043 42.4915 37.1941 43.1646 38.0175 43.9081V43.9054Z" fill="#FF6600"/>
</g>
</svg>
