<?xml version="1.0" encoding="utf-8"?>
<!-- Generator: Adobe Illustrator 18.0.0, SVG Export Plug-In . SVG Version: 6.00 Build 0)  -->
<!DOCTYPE svg PUBLIC "-//W3C//DTD SVG 1.1//EN" "http://www.w3.org/Graphics/SVG/1.1/DTD/svg11.dtd">
<svg version="1.1" id="Web_x2F_Online" xmlns="http://www.w3.org/2000/svg" xmlns:xlink="http://www.w3.org/1999/xlink" x="0px"
	 y="0px" viewBox="0 0 612 792" enable-background="new 0 0 612 792" xml:space="preserve">
<g>
	<g>
		<path fill="#737577" d="M263.2,389.1h-0.4c-0.8,0-1.4,0.4-1.9,1l-11.1,16.8l-11.1-16.8c-0.5-0.7-1.1-1-1.9-1h-0.4
			c-1.1,0-1.9,0.9-1.9,1.9v28.5c0,1.1,0.8,1.9,1.9,1.9s1.9-0.9,1.9-1.9v-23l9.7,14.4c0.5,0.7,1,1,1.7,1c0.6,0,1.2-0.3,1.6-1
			l9.8-14.4v23c0,1.1,0.9,2,2,2c1.1,0,1.9-0.9,1.9-2v-28.4C265.1,390,264.3,389.1,263.2,389.1z"/>
		<path fill="#737577" d="M297.3,388.7c-9.2,0-16.4,7.3-16.4,16.5v0.1c0,9.4,7,16.5,16.3,16.5c9.2,0,16.4-7.3,16.4-16.5v-0.1
			C313.6,395.8,306.6,388.7,297.3,388.7z M309.6,405.3L309.6,405.3c0,7.3-5.3,12.9-12.2,12.9c-6.9,0-12.3-5.6-12.3-12.9v-0.1
			c0-7.3,5.3-12.8,12.2-12.8C304.1,392.4,309.6,398,309.6,405.3z"/>
		<path fill="#737577" d="M340.6,389.3h-9.2c-1.1,0-1.9,0.9-1.9,2v28c0,1.1,0.9,2,1.9,2h9.2c9.9,0,17-6.7,17-16v-0.1
			C357.6,395.9,350.5,389.3,340.6,389.3z M340.6,417.6h-7.3v-24.7h7.3c7.6,0,12.9,5.1,12.9,12.4v0.1
			C353.5,412.5,348.3,417.6,340.6,417.6z"/>
		<path fill="#737577" d="M395.2,417.6h-17.9v-10.7h15.7c1,0,1.8-0.9,1.8-1.8c0-1-0.9-1.8-1.8-1.8h-15.7v-10.4h17.7
			c1,0,1.8-0.8,1.8-1.8c0-1-0.8-1.8-1.8-1.8h-19.7c-1.1,0-1.9,0.9-1.9,2v28c0,1.1,0.9,2,1.9,2h19.9c1,0,1.8-0.8,1.8-1.8
			C397,418.5,396.2,417.6,395.2,417.6z"/>
	</g>
	<path fill="#79CACF" d="M370.4,367.6H261.1c-4.7,0-8.6-3.9-8.6-8.6v-53.3c0-4.7,3.9-8.6,8.6-8.6h109.2c4.7,0,8.6,3.9,8.6,8.6V359
		C378.9,363.7,375.1,367.6,370.4,367.6z"/>
	<path fill="#E6E7E8" d="M316.8,316.3v32.5l41.9,1.6c0,0,4.9-0.2,5.3-6.2v-25c0,0-0.8-4.8-8.7-4.9L316.8,316.3z"/>
	<path fill="#FFFFFF" d="M316.8,315.7h-41.7c-3.6,0-6.6,2.9-6.6,6.6v20.2c0,3.6,2.9,6.6,6.6,6.6h41.7V315.7z"/>
	<circle fill="#79CACF" cx="287.1" cy="332.3" r="7"/>
	<path fill="#737577" d="M358.4,312.6L358.4,312.6l-9.8,0.3c-0.1,0-0.1,0-0.2,0c-0.1,0-0.2,0-0.2,0l-31.4,1c-0.1,0-0.2,0-0.3,0
		c-0.1,0-0.2,0-0.3,0H273c-3.9,0-7,3.1-7,7v23c0,3.9,3.1,7,7,7h43.5l41.8,1.2c0,0,0,0,0.1,0c3.9,0,7-3.1,7-7v-25.5
		C365.3,315.7,362.3,312.6,358.4,312.6z M351.6,319.7v25c0,1.7-1.4,3-3.1,3l0,0l-29.9-0.9v-29.3l30.1-0.9
		C350.3,316.8,351.6,318.1,351.6,319.7z M269.9,343.8v-23c0-1.7,1.4-3.1,3.1-3.1h41.6v29.2H273C271.3,346.9,269.9,345.5,269.9,343.8
		z M361.6,345.1c0,1.7-1.4,3.1-3.1,3.1l-3.9-0.1c0.5-0.9,0.9-2.1,0.9-3.2v-25c0-1.2-0.3-2.2-0.9-3.2l3.9-0.2c1.7,0,3.1,1.4,3.1,3.1
		V345.1z"/>
</g>
</svg>
