<?xml version="1.0" encoding="utf-8"?>
<!-- Generator: Adobe Illustrator 27.7.0, SVG Export Plug-In . SVG Version: 6.00 Build 0)  -->
<svg version="1.1" id="レイヤー_1" xmlns="http://www.w3.org/2000/svg" xmlns:xlink="http://www.w3.org/1999/xlink" x="0px"
	 y="0px" width="164px" height="92px" viewBox="0 0 164 92" style="enable-background:new 0 0 164 92;" xml:space="preserve">
<g>
	<g>
		<g>
			<polygon points="23.726,45.054 11.17,45.054 11.17,39.268 8.399,40.365 8.399,52.734 11.17,52.734 11.17,47.333 23.726,47.333 
				23.726,52.734 26.482,52.734 26.482,39.268 23.726,40.365 			"/>
			<path d="M98.746,39.637h-3.708c-5.857,0-8.079,1.659-8.079,6.018v1.097c0,4.358,2.222,6.022,8.079,6.022h3.708
				c5.876,0,8.102-1.664,8.102-6.022v-1.097C106.849,41.296,104.622,39.637,98.746,39.637z M104.041,46.477
				c0,2.954-0.969,4.013-5.786,4.032h-2.687c-4.85-0.019-5.781-1.078-5.781-4.032v-0.529c0-2.973,0.931-4.032,5.781-4.051h2.687
				c4.817,0.019,5.786,1.078,5.786,4.051V46.477z"/>
			<path d="M128.783,46.037v-0.071c1.257-0.199,2.132-0.969,2.132-2.846v-0.217c0-2.302-1.365-3.202-5.309-3.202h-12.098v12.888
				h12.5c3.905,0,5.252-0.95,5.252-3.413v-0.364C131.227,46.898,130.149,46.17,128.783,46.037z M116.278,42.081h9.181
				c2.028,0,2.699,0.312,2.699,1.385v0.094c0,1.04-0.671,1.328-2.699,1.328h-9.181V42.081z M128.49,48.774
				c0,1.243-0.714,1.551-2.992,1.551h-9.219v-3.153h9.181c2.264,0,3.03,0.236,3.03,1.513V48.774z"/>
			<path d="M152.774,40.324v6.701c0,2.501-1.059,3.484-4.855,3.484h-2.303c-3.815,0-4.869-0.983-4.869-3.484v-7.324h-2.813v7.489
				c0,3.938,1.697,5.583,7.024,5.583h3.599c5.328,0,7.043-1.645,7.043-5.583v-7.964L152.774,40.324z"/>
			<path d="M70.625,50.509H70.24c-4.708,0-5.654-1.059-5.654-4.032v-0.529c0-2.992,0.945-4.051,5.654-4.051h0.385h9.5v-2.26h-9.5
				h-0.934c-5.762,0-7.932,1.659-7.932,6.018v1.097c0,4.358,2.17,6.022,7.932,6.022h0.934v-0.005h10.048l-0.959-2.26H70.625z"/>
		</g>
	</g>
	<g>
		<polygon points="40.34,42.382 32.694,52.713 35.912,52.713 40.34,46.607 		"/>
		<polygon points="46.62,39.681 43.258,39.681 43.258,52.734 46.014,52.734 46.014,42.814 53.226,52.713 56.443,52.713 		"/>
	</g>
</g>
</svg>
