<svg width="164" height="92" viewBox="0 0 164 92" fill="none" xmlns="http://www.w3.org/2000/svg">
<path d="M149.955 37.9459C149.989 37.8725 150.004 37.7918 149.999 37.711C149.994 37.6303 149.969 37.5521 149.925 37.4836C149.882 37.4152 149.822 37.3586 149.752 37.319C149.681 37.2795 149.601 37.2583 149.52 37.2573H145.939C145.755 37.2579 145.575 37.3115 145.421 37.4116C145.266 37.5116 145.144 37.654 145.069 37.8215L140.983 46.8083C140.974 46.83 140.958 46.8485 140.938 46.8614C140.919 46.8744 140.895 46.8813 140.872 46.8813C140.848 46.8813 140.825 46.8744 140.805 46.8614C140.785 46.8485 140.77 46.83 140.76 46.8083L136.731 37.8261C136.657 37.6574 136.535 37.514 136.38 37.413C136.225 37.3121 136.045 37.258 135.86 37.2573H132.131C132.05 37.2583 131.971 37.2795 131.9 37.3188C131.83 37.3582 131.77 37.4145 131.727 37.4827C131.684 37.5508 131.658 37.6287 131.653 37.7092C131.647 37.7897 131.662 37.8702 131.696 37.9436L138.227 52.4873C138.255 52.5509 138.27 52.6198 138.27 52.6894C138.27 52.7591 138.255 52.828 138.227 52.8915L134.357 61.4116C134.323 61.485 134.308 61.5657 134.313 61.6463C134.318 61.727 134.344 61.8051 134.387 61.8735C134.43 61.9419 134.49 61.9985 134.56 62.0381C134.631 62.0776 134.71 62.099 134.791 62.1002H138.367C138.551 62.0995 138.731 62.0458 138.885 61.9458C139.039 61.8457 139.161 61.7034 139.236 61.536L149.955 37.9459Z" fill="#212121"/>
<path d="M126.429 47.9506C126.232 47.8561 126.007 47.8335 125.795 47.8865C125.583 47.9396 125.396 48.0651 125.267 48.2412C124.843 48.8232 124.285 49.2959 123.642 49.6199C122.998 49.944 122.285 50.1102 121.564 50.1046C120.393 50.1046 119.27 49.6404 118.442 48.8143C117.613 47.9881 117.148 46.8676 117.148 45.6993C117.148 44.5309 117.613 43.4104 118.442 42.5842C119.27 41.7581 120.393 41.2939 121.564 41.2939C122.279 41.2886 122.985 41.4518 123.624 41.7703C124.263 42.0887 124.818 42.5534 125.243 43.1264C125.374 43.3004 125.56 43.4239 125.772 43.4756C125.983 43.5274 126.206 43.5042 126.402 43.41L129.22 42.0915C129.281 42.0625 129.335 42.0213 129.379 41.9706C129.423 41.9199 129.457 41.8608 129.477 41.7967C129.497 41.7327 129.504 41.6652 129.497 41.5984C129.491 41.5316 129.47 41.4669 129.437 41.4083C128.641 40.032 127.493 38.8915 126.109 38.1038C124.726 37.3161 123.158 36.9095 121.565 36.9257C120.393 36.8988 119.228 37.1059 118.137 37.5346C117.047 37.9634 116.053 38.6052 115.215 39.4224C114.377 40.2396 113.711 41.2157 113.256 42.2934C112.801 43.371 112.567 44.5285 112.567 45.6977C112.567 46.8669 112.801 48.0244 113.256 49.102C113.711 50.1797 114.377 51.1558 115.215 51.973C116.053 52.7902 117.047 53.4321 118.137 53.8608C119.228 54.2896 120.393 54.4966 121.565 54.4697C123.166 54.4863 124.742 54.0755 126.131 53.2799C127.519 52.4843 128.669 51.3327 129.461 49.9446C129.494 49.886 129.514 49.8215 129.52 49.7549C129.527 49.6883 129.52 49.6211 129.499 49.5573C129.479 49.4936 129.446 49.4347 129.402 49.3842C129.358 49.3337 129.304 49.2927 129.244 49.2637L126.429 47.9506Z" fill="#212121"/>
<path d="M108.186 54.1791H104.827C104.732 54.1784 104.638 54.159 104.551 54.122C104.463 54.085 104.384 54.0312 104.317 53.9636C104.25 53.896 104.198 53.8159 104.162 53.728C104.126 53.64 104.108 53.5459 104.109 53.4511V37.9853C104.108 37.8904 104.126 37.7963 104.162 37.7084C104.198 37.6205 104.25 37.5404 104.317 37.4728C104.384 37.4052 104.463 37.3513 104.551 37.3144C104.638 37.2774 104.732 37.258 104.827 37.2573H108.186C108.281 37.258 108.375 37.2774 108.463 37.3144C108.55 37.3513 108.63 37.4052 108.696 37.4728C108.763 37.5404 108.816 37.6205 108.851 37.7084C108.887 37.7963 108.905 37.8904 108.904 37.9853V53.4503C108.905 53.5452 108.887 53.6394 108.852 53.7274C108.816 53.8155 108.763 53.8956 108.697 53.9633C108.63 54.031 108.55 54.0849 108.463 54.122C108.375 54.159 108.281 54.1784 108.186 54.1791V54.1791Z" fill="#212121"/>
<path d="M106.505 34.8258C108.01 34.8258 109.229 33.5888 109.229 32.0628C109.229 30.5369 108.01 29.2999 106.505 29.2999C105.001 29.2999 103.781 30.5369 103.781 32.0628C103.781 33.5888 105.001 34.8258 106.505 34.8258Z" fill="#FF7D32"/>
<path d="M91.4467 36.9273C89.715 36.9623 88.0323 37.5065 86.6094 38.4917C85.1866 39.477 84.087 40.8593 83.4485 42.4655C82.8101 44.0716 82.6612 45.8301 83.0206 47.5203C83.38 49.2105 84.2316 50.7573 85.4686 51.9666C86.7057 53.1759 88.2731 53.994 89.9744 54.3182C91.6756 54.6425 93.435 54.4584 95.0318 53.7892C96.6286 53.1199 97.9918 51.9953 98.9505 50.5562C99.9091 49.1172 100.421 47.4278 100.421 45.7C100.422 44.5324 100.19 43.3763 99.7368 42.2995C99.284 41.2228 98.6202 40.2471 97.7842 39.4299C96.9482 38.6126 95.9569 37.9702 94.8686 37.5405C93.7803 37.1107 92.6169 36.9022 91.4467 36.9273V36.9273ZM91.4467 50.1046C90.5773 50.0871 89.7324 49.8139 89.018 49.3193C88.3036 48.8248 87.7515 48.1308 87.4309 47.3244C87.1103 46.5181 87.0354 45.6352 87.2157 44.7866C87.396 43.938 87.8235 43.1614 88.4445 42.5542C89.0655 41.9469 89.8524 41.5361 90.7065 41.3732C91.5606 41.2103 92.4439 41.3026 93.2457 41.6385C94.0474 41.9743 94.7319 42.5389 95.2134 43.2613C95.6948 43.9837 95.9517 44.8318 95.9519 45.6993C95.9526 46.2855 95.8359 46.866 95.6087 47.4066C95.3814 47.9473 95.0481 48.4372 94.6285 48.8476C94.2088 49.2579 93.7111 49.5805 93.1648 49.7964C92.6184 50.0123 92.0343 50.117 91.4467 50.1046V50.1046Z" fill="#212121"/>
<path d="M80.5638 37.2573H76.9822C76.7982 37.2579 76.6184 37.3115 76.4642 37.4116C76.31 37.5116 76.188 37.654 76.1129 37.8215L72.0269 46.8083C72.0172 46.8297 72.0015 46.8479 71.9817 46.8606C71.962 46.8734 71.9389 46.8802 71.9153 46.8802C71.8918 46.8802 71.8687 46.8734 71.8489 46.8606C71.8292 46.8479 71.8135 46.8297 71.8038 46.8083L67.7751 37.8261C67.7005 37.6575 67.5786 37.514 67.4241 37.4131C67.2695 37.3121 67.089 37.258 66.9043 37.2573H63.1855C63.1046 37.2583 63.0253 37.2795 62.9547 37.3188C62.8841 37.3582 62.8245 37.4145 62.7813 37.4827C62.738 37.5508 62.7125 37.6287 62.7071 37.7092C62.7016 37.7897 62.7164 37.8702 62.7501 37.9436L69.7832 53.6103C69.8578 53.7789 69.9797 53.9223 70.1342 54.0233C70.2888 54.1242 70.4693 54.1784 70.6541 54.1791H73.0139C73.1979 54.1785 73.3777 54.1249 73.5319 54.0248C73.6861 53.9247 73.8081 53.7824 73.8832 53.6149L80.9969 37.9459C81.0308 37.8726 81.0459 37.792 81.0407 37.7115C81.0355 37.631 81.0103 37.553 80.9673 37.4846C80.9243 37.4162 80.8649 37.3596 80.7944 37.3199C80.724 37.2803 80.6447 37.2587 80.5638 37.2573V37.2573Z" fill="#212121"/>
<path d="M51.5116 25.0507C46.946 26.5964 38.4432 32.3612 33.8063 46.7364C29.171 32.3612 20.6682 26.5933 16.1018 25.0507C15.8794 24.9753 15.6369 24.9851 15.4213 25.0781C15.2057 25.1711 15.0324 25.3406 14.9351 25.5538C13.6862 28.2658 10.1564 38.2288 17.6002 52.2763C22.1712 60.9077 30.5702 64.84 33.0819 65.8579C33.5478 66.0474 34.0695 66.0474 34.5354 65.8579C37.0471 64.84 45.4423 60.9069 50.0171 52.2763C57.4594 38.2326 53.9296 28.2658 52.6807 25.5538C52.5832 25.3402 52.4095 25.1704 52.1934 25.0774C51.9773 24.9844 51.7343 24.9749 51.5116 25.0507V25.0507ZM31.3845 59.5621C27.3888 57.2876 24.0909 53.9688 21.8458 49.9631C18.7855 44.1899 17.4584 38.6183 17.9016 33.4038C17.9566 32.7522 18.0379 32.1463 18.134 31.5906C19.1405 32.3058 20.0856 33.1033 20.9595 33.9749C24.5233 37.503 27.3054 42.311 29.2253 48.2659L29.2307 48.2814L29.2361 48.2969C31.1226 54.0153 31.4527 57.5643 31.3845 59.5621ZM45.77 49.9631C43.5242 53.9691 40.2255 57.2879 36.229 59.5621C36.1608 57.5635 36.4908 54.0153 38.3773 48.2938L38.3828 48.2783L38.3882 48.2628C40.308 42.3079 43.0886 37.4992 46.654 33.9718C47.5278 33.1002 48.4729 32.3027 49.4795 31.5875C49.5763 32.144 49.6577 32.7468 49.7119 33.4007C50.1558 38.6144 48.8287 44.186 45.77 49.9631Z" fill="#FF7D32"/>
</svg>
