<svg xmlns="http://www.w3.org/2000/svg" viewBox="0 0 380.9 113.2"><title>Kanmu_logo</title><rect width="380.9" height="113.23" style="fill:none"/><path d="M60.7,52.4c5.2-3.7,8.6-6.8,12.7-9.8l12.7-9.5H64.7s1.2,3.9-3.5,7.7c-2.3,1.7-4.9,3.8-10.6,8.3V41.9c0-8.4,2.8-8.9,2.8-8.9H33s3.8.5,3.8,9.1h0V65.2c-.1,2.3,0,3.6,0,3.8,0,8.4-3.5,11.2-3.5,11.2H53.6s-2.5-.4-3-8.1V58.8l7.6,8L63.3,72c8.4,8.4,4.8,8.1,4.8,8.1H90.5S87.1,79,78.8,71.4Zm77.4,20.4V51.2c0-7.3-9.4-9.3-20.6-9.2a95.6,95.6,0,0,0-18.4,2,3.7,3.7,0,0,1-4-1.1V53.5s11.5-4.4,19.5-4.7,10.1-.1,10.3,2.6c.1.9,0,1.4.1,2.6-4.4-.5-14.6-.6-23.1,3.4S87.6,77.3,104.5,80a32.9,32.9,0,0,0,22-3.8c2.8,3,9.7,4.1,12.4,4.1h5.4A7.2,7.2,0,0,1,138.1,72.8Zm-13.2-3.4c-3.7,1.6-10.4,3.7-14.9,2.7-6.1-1.4-5.8-6.5.6-9.2A46.5,46.5,0,0,1,125,60.2c0,5.5-.1,6.5-.1,8.5Zm72.7,6.8c-.1-5,0-18.4,0-25S186.5,42,179.9,42s-8.6.9-10.7,2l-4.4,2.6c.3-3.8.8-4,.8-4H148.2s3.2.4,3.3,9.1h-.1V71.4c0,8.3-3,8.8-3,8.8h19s-2.7-2.1-2.7-8.1V56.2c2.2-2.4,4.6-6.1,11.4-6.1s6.1,2.3,6.4,6.3,0,14.8,0,19.6-1.5,4.2-1.5,4.2h19S198,79.6,197.6,76.2Zm145.6-5.3h.1V51.2c0-8.3,1.2-8.8,1.2-8.8H326.6s2.3.4,2.8,8.1V65.1a1.3,1.3,0,0,0-.1.6c-2.1,2.4-4.5,6.8-11.3,6.8s-6.9-2.9-7.1-7,0-14.1,0-18.9a9.3,9.3,0,0,1,1.3-4.2H294a4.2,4.2,0,0,1,2.5,4v25c0,7.3,12.4,9.3,19,9.2,4.4,0,6.9-.4,9.8-1.8a54.7,54.7,0,0,0,5.2-3.6c3,4.7,13.5,5.2,13.5,5.2h3.9S343.3,79.6,343.2,70.9Zm-59.1,5.3v-25c0-7.3-11.1-9.2-17.6-9.2s-9.4.9-11.4,2l-3.2,1.8C248.2,42.9,241.5,42,237,42c-6.6,0-8.6.9-10.7,2l-1.5.8c.3-2,.6-2.2.6-2.2H208s3.3.4,3.3,9.1h0V70.6a2.2,2.2,0,0,0-.1.8c0,8.3-3,8.8-3,8.8h19s-2.7-2.1-2.7-8.1V54.8a20.1,20.1,0,0,1,.1-2.5c2.4-1.8,4.6-3.5,9.2-3.5,6.8,0,6.2,2.2,6.4,6.3s.1,16.1,0,20.9-2.1,4.2-2.1,4.2h19s-2-.3-2.4-4,0-15,0-21.6a6.4,6.4,0,0,0-.7-2.8c2.5-1.6,4.4-3,8.6-3,6.8,0,6.9,2.2,7.1,6.3s0,16.1,0,20.9-2.2,4.2-2.2,4.2h19.1S284.3,80.2,284.1,76.2Z" style="fill:#231815"/></svg>