<svg width="164" height="92" viewBox="0 0 164 92" fill="none" xmlns="http://www.w3.org/2000/svg">
<path fill-rule="evenodd" clip-rule="evenodd" d="M58.2615 35.225C60.9818 35.225 63.3389 34.0437 63.3389 31.3753C63.3389 28.7069 61.1313 26.9635 58.411 26.9635C55.6907 26.9635 53.4832 28.7069 53.4832 31.3753C53.4832 34.0366 55.5412 35.225 58.2615 35.225ZM1 40.1918C1 39.3308 1.71212 38.7402 2.41712 38.7402H7.51589C8.16392 38.7402 8.61255 39.0675 8.74073 39.6012V40.8749C10.2718 39.5443 12.6289 38.1852 16.161 38.1852C20.4836 38.1852 22.6128 39.772 25.0696 42.8104C26.3586 41.4229 29.3281 38.1852 34.6832 38.1852C44.2327 38.1852 46.4973 44.3973 46.4973 52.3314V67.9364C46.4973 68.7334 45.8492 69.388 45.0161 69.388H39.8532C39.077 69.388 38.4361 68.7262 38.4361 67.9364V52.1322C38.4361 48.1686 37.019 45.7208 33.2732 45.7208C28.9507 45.7208 27.7258 48.8945 27.7258 48.8945C27.7258 48.8945 27.854 50.4172 27.854 51.8048V67.9364C27.854 68.7334 27.1419 69.388 26.4369 69.388H21.1458C20.3055 69.388 19.7287 68.7262 19.7287 67.9364V52.1322C19.7287 48.1686 18.6321 45.7208 14.8222 45.7208C11.1406 45.7208 9.78755 48.3679 9.07543 50.4813V67.9364C9.07543 68.7334 8.36331 69.388 7.65831 69.388H2.41712C1.71212 69.388 1 68.7262 1 67.9364C1 67.8866 1 40.1918 1 40.1918ZM109.306 59.5611C109.306 56.8499 111.179 55.1991 114.597 55.1991C116.983 55.1991 118.984 56.1241 118.984 56.1241V60.6213C118.599 61.7456 116.271 63.859 113.629 63.859C110.851 63.859 109.306 62.1441 109.306 59.5611ZM142.79 68.157C142.697 69.018 142.206 69.2813 140.931 69.2813V69.2528H136.146C135.384 69.2528 134.764 68.6266 134.764 67.8581V40.1064C134.764 39.3379 135.384 38.7117 136.146 38.7117H141.43C142.192 38.7117 142.818 39.3379 142.818 40.1064V40.6472C144.399 39.3806 146.863 38.0713 150.545 38.0713C160.03 38.0713 162.487 44.6179 162.487 52.0254V67.8297C162.487 68.6266 161.775 69.2813 161.07 69.2813H155.843C155.067 69.2813 154.426 68.6195 154.426 67.8297V52.0254C154.426 48.0619 152.874 45.6141 149.263 45.6141C145.418 45.6141 143.545 48.2185 142.826 50.3319V67.8723C142.818 67.9649 142.804 68.0645 142.79 68.157ZM119.924 66.314L120.159 68.221C120.543 69.082 120.935 69.2813 121.448 69.2813H125.307C126.084 69.2813 126.725 68.6195 126.725 67.8297V51.3636C126.725 43.031 124.788 38.0713 115.494 38.0713C110.652 38.0713 105.945 39.3308 105.297 39.5941C104.649 39.7933 104.072 40.3199 104.328 41.4442L104.976 44.8811C105.105 45.8062 105.689 46.532 106.657 46.2047C108.402 45.6781 112.34 45.0804 115.046 45.0804C118.208 45.0804 119.304 46.9305 119.176 50.83C119.176 50.83 116.463 49.969 113.429 49.969C105.881 49.969 101.551 54.1317 101.551 59.554C101.551 66.1005 105.681 70 111.621 70C116.278 70.0071 118.179 68.036 119.924 66.314ZM70.7734 67.8297C70.7734 68.6266 71.4855 69.2813 72.1905 69.2813H77.4175C78.1937 69.2813 78.8346 68.6195 78.8346 67.8297V54.9358L90.0647 68.6907C90.257 69.018 90.8409 69.2884 91.3536 69.2884H97.6773C98.9021 69.2884 99.3579 67.9649 98.5816 67.1038L86.1979 52.8864L98.0119 40.9888C98.7241 40.1278 98.2683 38.7402 97.0435 38.7402H90.9762C90.1359 38.7402 89.6232 39.2027 89.1033 39.6652L78.8417 50.3105V24.4516C78.8417 23.7258 78.1937 23 77.4246 23H72.1976C71.4855 23 70.7805 23.7258 70.7805 24.4516V67.8297H70.7734ZM54.4445 67.8297C54.4445 68.6266 55.1566 69.2813 55.8616 69.2813H61.0886C61.8007 69.2813 62.5057 68.6195 62.5057 67.8297V40.1918C62.5057 39.3308 61.7936 38.7402 61.0886 38.7402H55.8616C55.1495 38.7402 54.4445 39.3379 54.4445 40.1918V67.8297Z" fill="#222222"/>
</svg>
