<svg width="164" height="92" viewBox="0 0 164 92" fill="none" xmlns="http://www.w3.org/2000/svg">
<g clip-path="url(#clip0_7_393)">
<path d="M37.7666 57.9594L46.6538 35.2774C46.7074 35.1374 46.8548 35.0474 47.0156 35.0474H51.5849C51.749 35.0474 51.893 35.1407 51.9466 35.2774L60.8339 57.9594C60.921 58.1861 60.7367 58.4194 60.4721 58.4194H55.6081C55.4406 58.4194 55.2932 58.3227 55.2429 58.1794L53.7254 53.979H44.9085L43.391 58.1794C43.3408 58.3227 43.1934 58.4194 43.0259 58.4194H38.125C37.8604 58.4194 37.6728 58.1827 37.7633 57.9594H37.7666ZM46.8548 49.9853H51.749C52.0103 49.9853 52.1945 49.7553 52.1141 49.532L49.6654 42.7647C49.5515 42.4447 49.049 42.4447 48.9351 42.7647L46.4863 49.532C46.4059 49.7553 46.5902 49.9853 46.8515 49.9853H46.8548Z" fill="#2E2E2E"/>
<path d="M77.6837 47.1917L84.1021 35.2306C84.1624 35.1173 84.2863 35.0439 84.4203 35.0439H88.5775C88.7752 35.0439 88.9359 35.1973 88.9359 35.3906V58.0726C88.9359 58.2626 88.7752 58.4193 88.5775 58.4193H84.5242C84.3265 58.4193 84.1657 58.266 84.1657 58.0726V43.9181L78.9265 54.0256C78.8662 54.1423 78.7423 54.2156 78.6049 54.2156H76.0222C75.8848 54.2156 75.7609 54.1423 75.7006 54.0256L70.5317 44.0214V58.0726C70.5317 58.2626 70.3709 58.4193 70.1733 58.4193H66.1568C65.9591 58.4193 65.7983 58.266 65.7983 58.0726V35.3906C65.7983 35.2006 65.9591 35.0439 66.1568 35.0439H70.2436C70.3776 35.0439 70.4982 35.114 70.5619 35.2306L77.0472 47.195C77.1812 47.4417 77.5497 47.4417 77.6837 47.195V47.1917Z" fill="#2E2E2E"/>
<path d="M95.1099 58.0726V35.3906C95.1099 35.2006 95.274 35.0439 95.4783 35.0439H104.094C109.816 35.0439 113.812 37.7542 113.812 45.2082V48.2584C113.812 55.6758 109.816 58.4227 104.094 58.4227H95.4783C95.274 58.4227 95.1099 58.2693 95.1099 58.076V58.0726ZM108.68 48.2551V45.2048C108.68 41.1745 107.508 39.0743 104.094 39.0743H100.614C100.409 39.0743 100.245 39.2276 100.245 39.421V54.0756C100.245 54.2656 100.409 54.4223 100.614 54.4223H104.094C107.504 54.4223 108.68 52.2888 108.68 48.2551Z" fill="#2E2E2E"/>
<path d="M152.265 41.8312C152.265 42.0912 152.594 42.2379 152.828 42.0846C153.806 41.4345 155.046 41.1778 156.423 41.1778C161.042 41.1778 164.003 43.8214 164.003 48.9018V50.9353C164.003 55.5757 161.501 58.726 156.423 58.726C154.892 58.726 153.716 58.436 152.832 57.8526C152.597 57.6993 152.265 57.8426 152.265 58.1026C152.265 58.276 152.108 58.4193 151.91 58.4193H147.961C147.767 58.4193 147.606 58.2793 147.606 58.1026V35.3606C147.606 35.1873 147.763 35.0439 147.961 35.0439H151.91C152.105 35.0439 152.265 35.184 152.265 35.3606V41.8312ZM159.113 50.7987V49.0385C159.113 46.3283 158.111 44.8381 155.689 44.8381C153.267 44.8381 152.265 46.3283 152.265 49.0385V50.7987C152.265 53.2389 153.113 55.0657 155.689 55.0657C158.265 55.0657 159.113 53.2355 159.113 50.7987Z" fill="#2E2E2E"/>
<path d="M123.232 35.0439H119.416C119.207 35.0439 119.038 35.2126 119.038 35.4206V57.9693C119.038 58.1773 119.207 58.346 119.416 58.346H123.232C123.441 58.346 123.61 58.1773 123.61 57.9693V35.4206C123.61 35.2126 123.441 35.0439 123.232 35.0439Z" fill="#2E2E2E"/>
<path d="M14.3443 35.0508L7.20569 31.1638L0.137451 35.0508L7.13535 38.9978L14.3443 35.0508Z" fill="#FF6A33"/>
<path d="M7.13859 39.5711L0 35.6841V43.6981L7.13859 47.5851V39.5711Z" fill="#FF875C"/>
<path d="M7.13859 48.2852L0 44.3982V52.4122L7.13859 56.2992V48.2852Z" fill="#F5A78C"/>
<path d="M14.572 52.3455L7.8186 48.6885V56.6892L14.572 60.3428V52.3455Z" fill="#F5A78C"/>
<path d="M15.262 52.3455L22.0187 48.6885V56.6892L15.262 60.3428V52.3455Z" fill="#F5A78C"/>
<path d="M14.9003 34.754L22.0054 30.7937L14.9137 27L7.79858 30.7937L14.9003 34.754Z" fill="#FF6A33"/>
<path d="M15.4897 35.0508L22.6283 31.1638L29.6966 35.0508L22.6987 38.9978L15.4897 35.0508Z" fill="#FF6A33"/>
<path d="M7.13859 56.9859L0 53.0989V61.1129L7.13859 64.9999V56.9859Z" fill="#E8CCC4"/>
<path d="M22.7322 39.5711L29.8708 35.6841V43.6981L22.7322 47.5851V39.5711Z" fill="#FF875C"/>
<path d="M22.7322 48.2852L29.8708 44.3982V52.4122L22.7322 56.2992V48.2852Z" fill="#F5A78C"/>
<path d="M22.7322 56.9859L29.8708 53.0989V61.1129L22.7322 64.9999V56.9859Z" fill="#E8CCC4"/>
<path d="M134.548 48.2552H137.868C138.075 48.2552 138.243 48.1018 138.243 47.9085V47.2718C138.243 45.3749 137.61 44.7649 134.923 44.7649C133.251 44.7649 133.071 45.0316 132.33 45.9216C132.21 46.0683 131.985 46.0983 131.821 45.995L129.071 44.2448C128.903 44.1382 128.853 43.9248 128.97 43.7715C130.35 41.918 131.711 41.1746 135.375 41.1746C140.189 41.1746 142.913 42.4613 142.913 47.3051V58.0694C142.913 58.2594 142.745 58.4161 142.537 58.4161H138.625C138.417 58.4161 138.249 58.2627 138.249 58.0694V57.926C138.249 57.616 137.848 57.476 137.61 57.6927C136.879 58.3594 135.844 58.7228 134.22 58.7228C130.34 58.7228 128.387 56.8593 128.387 53.4023C128.387 49.9453 130.639 48.2518 134.555 48.2518L134.548 48.2552ZM138.243 51.7855C138.243 51.5955 138.075 51.4388 137.868 51.4388H135.111C133.171 51.4388 132.314 52.0155 132.314 53.3356C132.314 54.6557 133.396 55.2325 135.037 55.2325C137.201 55.2325 138.246 54.3857 138.246 52.0822V51.7855H138.243Z" fill="#2E2E2E"/>
</g>
<defs>
<clipPath id="clip0_7_393">
<rect width="164" height="92" fill="white"/>
</clipPath>
</defs>
</svg>
