<?xml version="1.0" encoding="UTF-8" standalone="no"?>
<svg
   xmlns:dc="http://purl.org/dc/elements/1.1/"
   xmlns:cc="http://creativecommons.org/ns#"
   xmlns:rdf="http://www.w3.org/1999/02/22-rdf-syntax-ns#"
   xmlns:svg="http://www.w3.org/2000/svg"
   xmlns="http://www.w3.org/2000/svg"
   xmlns:sodipodi="http://sodipodi.sourceforge.net/DTD/sodipodi-0.dtd"
   xmlns:inkscape="http://www.inkscape.org/namespaces/inkscape"
   id="_レイヤー_1"
   data-name="レイヤー 1"
   version="1.1"
   viewBox="0 0 245.33001 145.97"
   sodipodi:docname="株式会社Newbees.svg"
   width="245.33"
   height="145.97"
   inkscape:version="1.0.2-2 (e86c870879, 2021-01-15)">
  <metadata
     id="metadata159">
    <rdf:RDF>
      <cc:Work
         rdf:about="">
        <dc:format>image/svg+xml</dc:format>
        <dc:type
           rdf:resource="http://purl.org/dc/dcmitype/StillImage" />
        <dc:title></dc:title>
      </cc:Work>
    </rdf:RDF>
  </metadata>
  <sodipodi:namedview
     pagecolor="#ffffff"
     bordercolor="#666666"
     borderopacity="1"
     objecttolerance="10"
     gridtolerance="10"
     guidetolerance="10"
     inkscape:pageopacity="0"
     inkscape:pageshadow="2"
     inkscape:window-width="1817"
     inkscape:window-height="1366"
     id="namedview157"
     showgrid="false"
     fit-margin-bottom="50"
     fit-margin-top="50"
     fit-margin-left="20"
     fit-margin-right="20"
     inkscape:zoom="2.4026887"
     inkscape:cx="123.14"
     inkscape:cy="73.124999"
     inkscape:window-x="1662"
     inkscape:window-y="549"
     inkscape:window-maximized="0"
     inkscape:current-layer="_レイヤー_1" />
  <defs
     id="defs4">
    <style
       id="style2">
      .cls-1 {
        fill: #231815;
        stroke-width: 0px;
      }
    </style>
  </defs>
  <g
     id="g138"
     transform="translate(-18.59,-136.64)">
    <polygon
       class="cls-1"
       points="58.6,206.87 61.01,205.48 61.01,202.7 58.6,201.31 56.2,202.7 56.2,205.48 "
       id="polygon6" />
    <polygon
       class="cls-1"
       points="58.6,200.55 60.35,199.54 60.35,197.53 58.6,196.52 56.86,197.53 56.86,199.54 "
       id="polygon8" />
    <polygon
       class="cls-1"
       points="58.6,194.39 59.86,193.67 59.86,192.22 58.6,191.5 57.35,192.22 57.35,193.67 "
       id="polygon10" />
    <polygon
       class="cls-1"
       points="58.6,188.16 59.26,187.78 59.26,187.02 58.6,186.64 57.95,187.02 57.95,187.78 "
       id="polygon12" />
    <polygon
       class="cls-1"
       points="56.18,208.19 56.18,205.41 53.77,204.02 51.37,205.41 51.37,208.19 53.77,209.57 "
       id="polygon14" />
    <polygon
       class="cls-1"
       points="50.71,205.03 50.71,203.01 48.96,202.01 47.22,203.01 47.22,205.03 48.96,206.03 "
       id="polygon16" />
    <polygon
       class="cls-1"
       points="45.38,201.95 45.38,200.5 44.12,199.78 42.87,200.5 42.87,201.95 44.12,202.67 "
       id="polygon18" />
    <polygon
       class="cls-1"
       points="39.98,198.83 39.98,198.07 39.32,197.69 38.66,198.07 38.66,198.83 39.32,199.21 "
       id="polygon20" />
    <g
       id="g34">
      <polygon
         class="cls-1"
         points="50.71,210.7 50.71,208.69 48.96,207.68 47.22,208.69 47.22,210.7 48.96,211.7 "
         id="polygon22" />
      <polygon
         class="cls-1"
         points="45.38,207.62 45.38,206.17 44.12,205.45 42.87,206.17 42.87,207.62 44.12,208.35 "
         id="polygon24" />
      <polygon
         class="cls-1"
         points="45.38,213.29 45.38,211.84 44.12,211.12 42.87,211.84 42.87,213.29 44.12,214.02 "
         id="polygon26" />
      <polygon
         class="cls-1"
         points="39.98,204.47 39.98,203.71 39.32,203.33 38.66,203.71 38.66,204.47 39.32,204.85 "
         id="polygon28" />
      <polygon
         class="cls-1"
         points="39.98,210.11 39.98,209.35 39.32,208.97 38.66,209.35 38.66,210.11 39.32,210.49 "
         id="polygon30" />
      <polygon
         class="cls-1"
         points="39.98,215.75 39.98,214.99 39.32,214.61 38.66,214.99 38.66,215.75 39.32,216.13 "
         id="polygon32" />
    </g>
    <g
       id="g48">
      <polygon
         class="cls-1"
         points="55.47,216.93 53.73,215.92 51.99,216.93 51.99,218.94 53.73,219.95 55.47,218.94 "
         id="polygon36" />
      <polygon
         class="cls-1"
         points="50.15,220.01 48.89,219.28 47.64,220.01 47.64,221.45 48.89,222.18 50.15,221.45 "
         id="polygon38" />
      <polygon
         class="cls-1"
         points="55.06,222.84 53.8,222.12 52.55,222.84 52.55,224.29 53.8,225.01 55.06,224.29 "
         id="polygon40" />
      <polygon
         class="cls-1"
         points="44.72,223.11 44.06,222.73 43.4,223.11 43.4,223.87 44.06,224.25 44.72,223.87 "
         id="polygon42" />
      <polygon
         class="cls-1"
         points="49.6,225.93 48.94,225.55 48.29,225.93 48.29,226.69 48.94,227.07 49.6,226.69 "
         id="polygon44" />
      <polygon
         class="cls-1"
         points="54.49,228.75 53.83,228.37 53.17,228.75 53.17,229.51 53.83,229.89 54.49,229.51 "
         id="polygon46" />
    </g>
    <g
       id="g62">
      <polygon
         class="cls-1"
         points="63.52,215.81 61.78,216.81 61.78,218.83 63.52,219.83 65.27,218.83 65.27,216.81 "
         id="polygon50" />
      <polygon
         class="cls-1"
         points="63.52,221.96 62.27,222.69 62.27,224.13 63.52,224.86 64.78,224.13 64.78,222.69 "
         id="polygon52" />
      <polygon
         class="cls-1"
         points="68.43,219.13 67.18,219.85 67.18,221.3 68.43,222.02 69.69,221.3 69.69,219.85 "
         id="polygon54" />
      <polygon
         class="cls-1"
         points="63.5,228.22 62.84,228.59 62.84,229.35 63.5,229.73 64.15,229.35 64.15,228.59 "
         id="polygon56" />
      <polygon
         class="cls-1"
         points="68.38,225.39 67.72,225.77 67.72,226.53 68.38,226.91 69.04,226.53 69.04,225.77 "
         id="polygon58" />
      <polygon
         class="cls-1"
         points="73.27,222.57 72.61,222.95 72.61,223.71 73.27,224.09 73.92,223.71 73.92,222.95 "
         id="polygon60" />
    </g>
    <g
       id="g76">
      <polygon
         class="cls-1"
         points="66.43,208.76 66.43,210.77 68.17,211.78 69.92,210.77 69.92,208.76 68.17,207.76 "
         id="polygon64" />
      <polygon
         class="cls-1"
         points="71.76,211.84 71.76,213.29 73.01,214.01 74.27,213.29 74.27,211.84 73.01,211.12 "
         id="polygon66" />
      <polygon
         class="cls-1"
         points="71.76,206.17 71.76,207.62 73.01,208.34 74.27,207.62 74.27,206.17 73.01,205.44 "
         id="polygon68" />
      <polygon
         class="cls-1"
         points="77.16,214.99 77.16,215.75 77.82,216.13 78.48,215.75 78.48,214.99 77.82,214.61 "
         id="polygon70" />
      <polygon
         class="cls-1"
         points="77.16,209.35 77.16,210.11 77.82,210.49 78.48,210.11 78.48,209.35 77.82,208.97 "
         id="polygon72" />
      <polygon
         class="cls-1"
         points="77.16,203.71 77.16,204.47 77.82,204.85 78.48,204.47 78.48,203.71 77.82,203.33 "
         id="polygon74" />
    </g>
    <g
       id="g90">
      <polygon
         class="cls-1"
         points="61.71,202.3 63.45,203.3 65.19,202.3 65.19,200.28 63.45,199.28 61.71,200.28 "
         id="polygon78" />
      <polygon
         class="cls-1"
         points="67.03,199.22 68.29,199.94 69.54,199.22 69.54,197.77 68.29,197.05 67.03,197.77 "
         id="polygon80" />
      <polygon
         class="cls-1"
         points="62.12,196.38 63.38,197.11 64.63,196.38 64.63,194.93 63.38,194.21 62.12,194.93 "
         id="polygon82" />
      <polygon
         class="cls-1"
         points="72.46,196.11 73.12,196.49 73.78,196.11 73.78,195.36 73.12,194.98 72.46,195.36 "
         id="polygon84" />
      <polygon
         class="cls-1"
         points="67.58,193.29 68.24,193.67 68.89,193.29 68.89,192.54 68.24,192.16 67.58,192.54 "
         id="polygon86" />
      <polygon
         class="cls-1"
         points="62.69,190.47 63.35,190.85 64.01,190.47 64.01,189.71 63.35,189.34 62.69,189.71 "
         id="polygon88" />
    </g>
    <g
       id="g104">
      <polygon
         class="cls-1"
         points="53.7,203.25 55.45,202.24 55.45,200.23 53.7,199.23 51.96,200.23 51.96,202.24 "
         id="polygon92" />
      <polygon
         class="cls-1"
         points="53.7,197.1 54.96,196.37 54.96,194.92 53.7,194.2 52.45,194.92 52.45,196.37 "
         id="polygon94" />
      <polygon
         class="cls-1"
         points="48.79,199.93 50.05,199.21 50.05,197.76 48.79,197.04 47.54,197.76 47.54,199.21 "
         id="polygon96" />
      <polygon
         class="cls-1"
         points="53.73,190.84 54.39,190.46 54.39,189.71 53.73,189.33 53.07,189.71 53.07,190.46 "
         id="polygon98" />
      <polygon
         class="cls-1"
         points="48.85,193.66 49.5,193.28 49.5,192.53 48.85,192.15 48.19,192.53 48.19,193.28 "
         id="polygon100" />
      <polygon
         class="cls-1"
         points="43.96,196.49 44.62,196.11 44.62,195.35 43.96,194.97 43.3,195.35 43.3,196.11 "
         id="polygon102" />
    </g>
    <polygon
       class="cls-1"
       points="56.11,210.94 53.7,209.55 51.3,210.94 51.3,213.72 53.7,215.11 56.11,213.72 "
       id="polygon106" />
    <polygon
       class="cls-1"
       points="50.64,214.1 48.89,213.1 47.15,214.1 47.15,216.12 48.89,217.12 50.64,216.12 "
       id="polygon108" />
    <polygon
       class="cls-1"
       points="45.31,217.18 44.05,216.46 42.8,217.18 42.8,218.63 44.05,219.35 45.31,218.63 "
       id="polygon110" />
    <polygon
       class="cls-1"
       points="39.91,220.3 39.25,219.92 38.59,220.3 38.59,221.06 39.25,221.44 39.91,221.06 "
       id="polygon112" />
    <polygon
       class="cls-1"
       points="58.46,212.38 56.06,213.77 56.06,216.55 58.46,217.94 60.87,216.55 60.87,213.77 "
       id="polygon114" />
    <polygon
       class="cls-1"
       points="58.46,218.7 56.72,219.71 56.72,221.72 58.46,222.73 60.21,221.72 60.21,219.71 "
       id="polygon116" />
    <polygon
       class="cls-1"
       points="58.46,224.86 57.21,225.58 57.21,227.03 58.46,227.75 59.72,227.03 59.72,225.58 "
       id="polygon118" />
    <polygon
       class="cls-1"
       points="58.46,231.09 57.81,231.47 57.81,232.23 58.46,232.61 59.12,232.23 59.12,231.47 "
       id="polygon120" />
    <polygon
       class="cls-1"
       points="60.89,211.06 60.89,213.84 63.29,215.23 65.7,213.84 65.7,211.06 63.29,209.68 "
       id="polygon122" />
    <polygon
       class="cls-1"
       points="66.36,214.22 66.36,216.24 68.1,217.24 69.85,216.24 69.85,214.22 68.1,213.22 "
       id="polygon124" />
    <polygon
       class="cls-1"
       points="71.69,217.3 71.69,218.75 72.94,219.47 74.2,218.75 74.2,217.3 72.94,216.58 "
       id="polygon126" />
    <polygon
       class="cls-1"
       points="77.09,220.42 77.09,221.18 77.75,221.56 78.41,221.18 78.41,220.42 77.75,220.04 "
       id="polygon128" />
    <polygon
       class="cls-1"
       points="60.96,208.31 63.36,209.7 65.77,208.31 65.77,205.53 63.36,204.14 60.96,205.53 "
       id="polygon130" />
    <polygon
       class="cls-1"
       points="66.43,205.15 68.17,206.15 69.92,205.15 69.92,203.13 68.17,202.13 66.43,203.13 "
       id="polygon132" />
    <polygon
       class="cls-1"
       points="71.76,202.07 73.01,202.79 74.27,202.07 74.27,200.62 73.01,199.9 71.76,200.62 "
       id="polygon134" />
    <polygon
       class="cls-1"
       points="77.16,198.95 77.82,199.33 78.48,198.95 78.48,198.19 77.82,197.81 77.16,198.19 "
       id="polygon136" />
  </g>
  <g
     id="g154"
     transform="translate(-18.59,-136.64)">
    <path
       class="cls-1"
       d="m 107.9,196.93 c -0.24,0.24 -0.36,0.53 -0.36,0.87 V 218 L 91.21,197.01 c -0.06,-0.07 -0.24,-0.29 -1.14,0.03 -0.47,0.17 -1.03,0.44 -1.03,0.76 v 23.76 c 0,0.34 0.12,0.64 0.36,0.87 0.18,0.18 0.62,0.21 0.87,0.21 0,0 0.01,0 0.02,0 0.29,0 0.68,-0.04 0.85,-0.22 0.23,-0.24 0.35,-0.53 0.35,-0.87 v -20.18 l 16.37,21.04 c 0.07,0.07 0.23,0.25 1.09,-0.08 0.69,-0.26 1.04,-0.53 1.04,-0.79 v -23.76 c 0,-0.34 -0.12,-0.64 -0.36,-0.88 -0.28,-0.28 -1.45,-0.28 -1.73,0 z"
       id="path140" />
    <path
       class="cls-1"
       d="m 157.75,204.8 c -0.64,-0.27 -1.06,-0.31 -1.23,-0.14 -0.11,0.11 -0.19,0.23 -0.25,0.38 l -4.19,12.61 -4.14,-12.41 c -0.08,-0.24 -0.19,-0.44 -0.35,-0.59 -0.27,-0.27 -1.42,-0.28 -1.71,0 0,0 0,0 0,0 -0.14,0.14 -0.26,0.34 -0.35,0.59 l -4.14,12.42 -4.21,-12.61 c -0.06,-0.16 -0.15,-0.28 -0.25,-0.39 -0.23,-0.22 -0.81,-0.03 -1.26,0.16 -0.86,0.37 -0.86,0.62 -0.86,0.72 0,0.14 0.03,0.3 0.09,0.49 l 5.33,16 c 0.06,0.17 0.16,0.32 0.28,0.44 0.18,0.18 0.63,0.21 0.88,0.2 0.25,0 0.7,-0.03 0.89,-0.22 0.12,-0.12 0.21,-0.27 0.27,-0.43 l 4.19,-12.56 4.19,12.57 c 0.06,0.17 0.16,0.32 0.28,0.44 0.17,0.17 0.57,0.21 0.87,0.21 0.01,0 0.02,0 0.03,0 0.3,0 0.67,-0.04 0.83,-0.19 0.14,-0.14 0.24,-0.3 0.3,-0.46 l 5.33,-15.98 c 0.06,-0.18 0.09,-0.34 0.09,-0.5 0,-0.09 0,-0.36 -0.91,-0.74 z"
       id="path142" />
    <path
       class="cls-1"
       d="m 171.52,204.3 c -2.54,0 -4.74,0.91 -6.54,2.71 l -0.24,0.24 v -9.44 c 0,-0.34 -0.12,-0.64 -0.36,-0.87 -0.29,-0.29 -1.46,-0.29 -1.75,0 -0.24,0.24 -0.36,0.53 -0.36,0.88 v 15.75 c 0,2.54 0.91,4.74 2.71,6.54 1.8,1.8 4,2.71 6.54,2.71 2.54,0 4.74,-0.91 6.54,-2.71 1.8,-1.8 2.71,-4 2.71,-6.54 0,-2.54 -0.91,-4.74 -2.71,-6.54 -1.8,-1.8 -4,-2.71 -6.54,-2.71 z m 6.77,9.25 c 0,1.87 -0.66,3.48 -1.98,4.79 -1.32,1.32 -2.93,1.99 -4.79,1.99 -1.86,0 -3.47,-0.67 -4.79,-1.99 -1.32,-1.32 -1.99,-2.93 -1.99,-4.79 0,-1.86 0.67,-3.47 1.99,-4.79 1.32,-1.32 2.93,-1.99 4.79,-1.99 1.86,0 3.47,0.67 4.79,1.99 1.31,1.31 1.98,2.92 1.98,4.79 z"
       id="path144" />
    <path
       class="cls-1"
       d="m 222.58,207.01 c -1.8,-1.8 -4,-2.71 -6.54,-2.71 -2.54,0 -4.74,0.91 -6.54,2.71 -1.8,1.8 -2.71,4 -2.71,6.54 0,2.54 0.91,4.74 2.71,6.54 1.8,1.8 4,2.71 6.54,2.71 2.29,0 4.32,-0.75 6.03,-2.23 0,0 0.01,-0.01 0.02,-0.02 0.09,-0.1 0.28,-0.3 -0.56,-1.2 -0.82,-0.88 -1.02,-0.72 -1.14,-0.63 -0.6,0.52 -1.27,0.92 -1.99,1.19 -0.72,0.27 -1.52,0.41 -2.36,0.41 -1.86,0 -3.47,-0.67 -4.79,-1.99 -0.93,-0.93 -1.57,-2.13 -1.9,-3.56 h 14.75 c 0.42,0 0.8,-0.02 1,-0.22 0.2,-0.21 0.2,-0.59 0.2,-0.92 v -0.09 c 0,-2.54 -0.91,-4.74 -2.71,-6.54 z m 0.14,5.31 h -13.38 c 0.33,-1.43 0.97,-2.63 1.9,-3.56 1.32,-1.32 2.93,-1.99 4.79,-1.99 1.86,0 3.47,0.67 4.79,1.99 0.94,0.94 1.58,2.14 1.89,3.56 z"
       id="path146" />
    <path
       class="cls-1"
       d="m 200.4,207.01 c -1.8,-1.8 -4,-2.71 -6.54,-2.71 -2.54,0 -4.74,0.91 -6.54,2.71 -1.8,1.8 -2.71,4 -2.71,6.54 0,2.54 0.91,4.74 2.71,6.54 1.8,1.8 4,2.71 6.54,2.71 2.29,0 4.32,-0.75 6.03,-2.23 0,0 0.01,-0.01 0.02,-0.02 0.09,-0.1 0.28,-0.3 -0.56,-1.2 -0.82,-0.88 -1.02,-0.72 -1.14,-0.63 -0.6,0.52 -1.27,0.92 -1.99,1.19 -0.72,0.27 -1.52,0.41 -2.36,0.41 -1.86,0 -3.47,-0.67 -4.79,-1.99 -0.93,-0.93 -1.57,-2.13 -1.9,-3.56 h 14.75 c 0.42,0 0.8,-0.02 1,-0.22 0.2,-0.21 0.2,-0.59 0.2,-0.92 v -0.09 c 0,-2.54 -0.91,-4.74 -2.71,-6.54 z m -6.54,-0.24 c 1.86,0 3.47,0.67 4.79,1.99 0.94,0.94 1.58,2.14 1.89,3.56 h -13.38 c 0.33,-1.43 0.97,-2.63 1.9,-3.56 1.32,-1.32 2.93,-1.99 4.79,-1.99 z"
       id="path148" />
    <path
       class="cls-1"
       d="m 129.67,207.01 c -1.8,-1.8 -4,-2.71 -6.54,-2.71 -2.54,0 -4.74,0.91 -6.54,2.71 -1.8,1.8 -2.71,4 -2.71,6.54 0,2.54 0.91,4.74 2.71,6.54 1.8,1.8 4,2.71 6.54,2.71 2.29,0 4.32,-0.75 6.03,-2.23 0,0 0.01,-0.01 0.02,-0.02 0.09,-0.1 0.28,-0.3 -0.56,-1.2 -0.82,-0.88 -1.02,-0.72 -1.14,-0.63 -0.6,0.52 -1.27,0.92 -1.99,1.19 -0.72,0.27 -1.52,0.41 -2.36,0.41 -1.86,0 -3.47,-0.67 -4.79,-1.99 -0.93,-0.93 -1.57,-2.13 -1.9,-3.56 h 14.75 c 0.43,0 0.8,-0.02 1,-0.22 0.2,-0.21 0.2,-0.59 0.2,-0.92 v -0.09 c 0,-2.54 -0.91,-4.74 -2.71,-6.54 z m 0.14,5.31 h -13.38 c 0.33,-1.43 0.97,-2.63 1.9,-3.56 1.32,-1.32 2.93,-1.99 4.79,-1.99 1.86,0 3.47,0.67 4.79,1.99 0.94,0.94 1.58,2.14 1.89,3.56 z"
       id="path150" />
    <path
       class="cls-1"
       d="m 242.75,214.81 c -0.19,-0.22 -0.47,-0.42 -0.82,-0.61 -0.33,-0.17 -0.73,-0.35 -1.21,-0.53 -0.02,-0.01 -0.03,-0.02 -0.05,-0.03 l -8.22,-2.72 c -0.29,-0.1 -0.5,-0.25 -0.64,-0.45 -0.15,-0.2 -0.23,-0.44 -0.24,-0.7 0,-0.49 0.14,-0.9 0.42,-1.22 1.13,-1.19 2.65,-1.79 4.51,-1.79 1.86,0 3.47,0.67 4.79,1.99 l 0.49,0.49 c 0.21,0.25 0.58,-0.02 0.91,-0.3 1.18,-0.98 0.98,-1.24 0.9,-1.34 -0.96,-1.05 -2.05,-1.87 -3.24,-2.44 -1.2,-0.58 -2.5,-0.87 -3.85,-0.87 -2.54,0 -4.64,0.81 -6.22,2.42 -0.79,0.81 -1.19,1.76 -1.19,2.82 0,1.06 0.39,1.97 1.14,2.75 0.2,0.21 0.48,0.42 0.83,0.6 0.33,0.18 0.73,0.35 1.21,0.53 0.02,0.01 0.03,0.02 0.05,0.03 l 8.2,2.72 c 0.56,0.2 0.85,0.59 0.89,1.16 0,0.49 -0.14,0.9 -0.43,1.22 -1.12,1.18 -2.63,1.78 -4.48,1.78 -1.85,0 -3.47,-0.67 -4.79,-1.99 l -0.5,-0.5 c -0.21,-0.21 -0.54,-0.01 -0.96,0.35 -1.11,0.95 -0.92,1.2 -0.84,1.31 1.96,2.19 4.35,3.3 7.1,3.3 2.54,0 4.63,-0.81 6.2,-2.42 0.8,-0.8 1.21,-1.75 1.21,-2.82 0,-1.07 -0.39,-1.99 -1.16,-2.75 z"
       id="path152" />
  </g>
</svg>
