<?xml version="1.0" encoding="utf-8"?>
<!-- Generator: Adobe Illustrator 27.0.0, SVG Export Plug-In . SVG Version: 6.00 Build 0)  -->
<svg version="1.1" id="レイヤー_1" xmlns="http://www.w3.org/2000/svg" xmlns:xlink="http://www.w3.org/1999/xlink" x="0px"
	 y="0px" viewBox="0 0 448 242" style="enable-background:new 0 0 448 242;" xml:space="preserve">
<style type="text/css">
	.st0{fill:none;stroke:#040000;stroke-width:10.8167;stroke-miterlimit:10;}
	.st1{fill:#040000;}
</style>
<g id="hr_1_">
	<path class="st0" d="M103.3,69.88"/>
	<path class="st0" d="M217.8,69.88"/>
	<path class="st1" d="M84.95,111.83l-5.69-4.52c-1.72-1.11-2.4-0.43-3.38,0.73c-5.17,6.98-13.97,10.73-21.1,10.73
		c-6.47,0-14.2-4.26-13.61-16.77c1.03-0.19,5.9-1.11,6.1-1.2c27.82-5.88,32.25-12.98,34.49-18.71c4.69-12-4.88-24.8-21.71-22.56
		c-14.32,1.9-30.07,12.78-34.25,32.94l-8.76,1.54c-1.48,0.26-2.46,1.65-2.46,3.33l0.23,6.52c0.11,1.51,1.21,2.53,2.69,2.27
		l7.34-1.29c1.1,16.26,12.53,29.5,27.6,29.5c11.69,0,24.3-6.34,31.68-17.57C84.11,116.78,86.85,113.3,84.95,111.83z M41.94,89.58
		c2.9-10.13,12.42-18.87,20.8-18.02c4.15,0.42,6.03,3.53,4.42,7.32c-2.69,6.31-13.28,8.69-20.91,9.99
		C46.22,88.88,42.95,89.41,41.94,89.58z"/>
	<path class="st1" d="M304.98,61.89c-2.29-1.59-6-2.29-10.06-2.29c-7.19,0-12.7,3.66-16.13,6.67c0.05-0.39,0.1-0.74,0.13-1.04
		c0.35-2.78-0.63-3.87-4.42-3.87h-0.68c0,0,0,0,0,0h-7.66c-1.94,0-3.18,1.59-3.35,3.35l-8.82,63.87c-0.18,1.76,0.88,3.35,2.47,3.35
		h8.82c2.82,0,4.94-0.35,5.29-3.35l6.35-44.81c1.06-1.24,6.18-8.47,13.58-8.47c2.47,0,5.12,0.71,5.82,0.88
		c1.23,0.35,2.82,0.18,4.06-1.59l4.94-8.64C306.39,64.36,306.39,62.77,304.98,61.89z"/>
	<path d="M164.46,61.53h-9.24c-1.94,0-3.17,0.88-3.7,1.94l-23.72,46.05l-9.49-45.34c-0.35-1.59-1.06-2.64-2.82-2.64h-9.77
		c-2.29,0-3.35,0.88-2.64,3.17l16.03,67.27c0.08,0.41,0.35,0.79,0.72,1.11c0.34,0.39,0.85,0.67,1.68,0.67h0
		c0.01,0,0.02,0.01,0.04,0.01l7.62-0.01c1.98,0,2.69-1.43,2.88-1.78l34.52-66.39C167.81,63.29,166.93,61.53,164.46,61.53z"/>
	<g>
		<path class="st1" d="M381.68,61.36h-9.7c-2.47,0-3.7,0.53-4.06,3.35l-5.82,42.7c-0.71,1.94-7.94,11.11-16.06,11.11
			c-7.76,0-11.64-6.35-10.06-17.82l5.12-35.99c0.18-1.76-1.06-3.35-2.65-3.35h-10.76c-1.59,0-3.18,1.59-3.53,3.35l-4.94,35.64
			c-2.47,18.35,2.12,33.34,21.52,33.34c8.79,0,15.29-3.8,19.05-6.72c-0.04,0.27-0.07,0.52-0.1,0.74c-0.35,2.78-0.19,4.53,3.61,3.84
			l9.18-1.64c0.37-0.06,0.69-0.15,0.69-0.15c1.32-0.46,2.38-1.75,2.52-3.16l8.62-61.88C384.5,62.94,383.27,61.36,381.68,61.36z"/>
		<path class="st1" d="M431.17,116.35l-11.12,2.14c-1.59,0.37-1.72,1.46-2.04,2.59c-0.06,0.39-0.16,0.8-0.37,1.28
			c-2.23,5.34-8.23,7.64-14.13,9.03c-0.26,0.12-24.24,4.55-24.24,4.55c0,0,0,0,0,0l-7.12,1.26c0-0.01,0-0.01,0-0.02
			c0,0-22.22,3.95-22.32,3.98c-27.94,5.9-32.08,13.15-34.67,18.75c-5.37,11.61,4.88,24.8,21.71,22.56
			c14.14-1.88,29.35-14.36,33.99-32.85l8.36-1.47c0,0,0,0.01,0,0.01l16.61-2.93c0,0,0-0.01,0-0.02c26.12-4.6,34.41-12.5,36.71-20.66
			c0.23-0.83,0.42-1.63,0.57-2.4l-0.03,0.05C433.57,119.34,433.97,116.03,431.17,116.35z M334.19,170.44
			c-4.15-0.42-6.03-3.54-4.42-7.32c2.62-6.14,12.71-8.55,20.27-9.88c0.18,0.01,4.94-0.81,4.94-0.81
			C352.08,162.56,342.56,171.29,334.19,170.44z"/>
	</g>
	<g>
		<path class="st1" d="M236.75,111.83l-5.69-4.52c-1.72-1.11-2.4-0.43-3.39,0.73c-5.17,6.98-13.97,10.73-21.1,10.73
			c-6.47,0-14.2-4.26-13.61-16.77c33.3-6.09,38.2-13.79,40.59-19.91c4.69-12-4.88-24.8-21.71-22.56
			c-16.1,2.14-34.05,15.59-35.28,40.87c-0.89,18.23,11.25,33.94,27.67,33.94c11.69,0,24.3-6.34,31.68-17.57
			C235.91,116.78,238.65,113.3,236.75,111.83z M214.53,71.57c4.15,0.42,6.03,3.53,4.42,7.32c-3.26,7.63-18.08,9.51-25.22,10.69
			C196.64,79.45,206.16,70.71,214.53,71.57z"/>
	</g>
</g>
</svg>
