<?xml version="1.0" encoding="UTF-8" standalone="no"?>
<!DOCTYPE svg PUBLIC "-//W3C//DTD SVG 1.1//EN" "http://www.w3.org/Graphics/SVG/1.1/DTD/svg11.dtd">
<svg width="100%" height="100%" viewBox="0 0 1234 239" version="1.1" xmlns="http://www.w3.org/2000/svg" xmlns:xlink="http://www.w3.org/1999/xlink" xml:space="preserve" xmlns:serif="http://www.serif.com/" style="fill-rule:evenodd;clip-rule:evenodd;stroke-linejoin:round;stroke-miterlimit:2;">
    <g id="アートボード1" transform="matrix(1,0,0,1,-22.6803,-238.491)">
        <rect x="22.68" y="238.491" width="1233.82" height="238.738" style="fill:none;"/>
        <g transform="matrix(1.34908,0,0,1.34908,-160.606,51.9776)">
            <g transform="matrix(1,0,0,1,544.655,197.462)">
                <path d="M0,61.867C-17.084,61.867 -30.936,48.018 -30.936,30.934C-30.936,13.848 -17.084,-0.002 0,-0.002L15.911,-0.002L15.911,61.867L0,61.867ZM-14.14,-13.701C-38.792,-13.701 -58.775,6.283 -58.775,30.934C-58.775,55.586 -38.792,75.568 -14.14,75.568L42.869,75.568L42.869,-13.701L-14.14,-13.701Z" style="fill:rgb(0,117,194);fill-rule:nonzero;"/>
            </g>
            <g transform="matrix(1,0,0,1,212.509,168.294)">
                <path d="M0,91.035C-17.084,91.035 -30.935,77.186 -30.935,60.102C-30.935,43.016 -17.084,29.166 0,29.166L15.91,29.166L15.91,91.035L0,91.035ZM15.91,-13.701L15.91,15.467L-14.141,15.467C-38.792,15.467 -58.777,35.451 -58.777,60.102C-58.777,84.754 -38.792,104.736 -14.141,104.736L42.869,104.736L42.869,-13.701L15.91,-13.701Z" style="fill:rgb(0,117,194);fill-rule:nonzero;"/>
            </g>
            <g transform="matrix(1,0,0,1,739.057,228.972)">
                <path d="M0,-2.657C-0.002,-38.377 -15.743,-45.08 -33.586,-45.08L-101.646,-45.08L-101.646,42.423L-74.688,42.423L-74.688,-31.381L-48.172,-31.381C-31.085,-31.381 -26.957,-22.318 -26.957,-2.654L-26.957,42.423L0.001,42.423L0.001,-2.654L0,-2.657Z" style="fill:rgb(0,117,194);fill-rule:nonzero;"/>
            </g>
            <g transform="matrix(1,0,0,1,813.396,259.024)">
                <path d="M0,-31.375C0,-48.46 13.849,-61.427 30.937,-61.427L45.959,-61.427L45.959,-1.324L30.937,-1.324C13.849,-1.324 0,-14.291 0,-31.375M16.793,-75.126C-7.857,-75.126 -27.842,-56.028 -27.842,-31.375C-27.842,-6.727 -7.857,12.375 16.793,12.375L44.657,12.375C41.07,25.136 30.183,30.05 13.258,30.05L-16.793,30.05L-16.793,43.751L29.167,43.751C54.912,43.751 73.803,31.817 73.803,-4.421L73.803,-75.126L16.793,-75.126Z" style="fill:rgb(0,117,194);fill-rule:nonzero;"/>
            </g>
            <g transform="matrix(1,0,0,1,983.346,198.786)">
                <path d="M0,59.219C-12.694,59.219 -22.981,45.961 -22.981,29.611C-22.981,13.257 -12.694,0 0,0C12.69,0 22.979,13.257 22.979,29.611C22.979,45.961 12.69,59.219 0,59.219M0,-15.025C-28.069,-15.025 -50.823,4.959 -50.823,29.611C-50.823,54.259 -28.069,74.244 0,74.244C28.067,74.244 50.819,54.259 50.819,29.611C50.819,4.959 28.067,-15.025 0,-15.025" style="fill:rgb(0,117,194);fill-rule:nonzero;"/>
            </g>
            <g transform="matrix(1,0,0,1,415.294,273.03)">
                <path d="M0,-87.502L0,-42.426C0,-22.762 -4.13,-13.7 -21.215,-13.7L-28.478,-13.7L-28.478,-87.502L-55.436,-87.502L-55.436,-13.7L-62.698,-13.7C-79.783,-13.7 -83.913,-22.762 -83.913,-42.426L-83.913,-87.502L-110.871,-87.502L-110.871,-42.426L-110.868,-42.422C-110.868,-6.704 -95.127,0 -77.281,0L-6.632,0C11.213,0 26.956,-6.704 26.957,-42.422L26.958,-42.426L26.958,-87.502L0,-87.502Z" style="fill:rgb(0,117,194);fill-rule:nonzero;"/>
            </g>
        </g>
    </g>
</svg>
